<?xml version="1.0" encoding="utf-8"?>
<!-- Generator: Adobe Illustrator 16.0.0, SVG Export Plug-In . SVG Version: 6.00 Build 0)  -->
<!DOCTYPE svg PUBLIC "-//W3C//DTD SVG 1.1//EN" "http://www.w3.org/Graphics/SVG/1.1/DTD/svg11.dtd">
<svg version="1.1" id="Layer_1" xmlns="http://www.w3.org/2000/svg" xmlns:xlink="http://www.w3.org/1999/xlink" x="0px" y="0px"
	 width="382px" height="408.5px" viewBox="0 0 382 408.5" enable-background="new 0 0 382 408.5" xml:space="preserve">
<rect x="54.917" y="40.261" fill="none" stroke="#000000" stroke-width="0.2835" stroke-miterlimit="10" width="104.316" height="255.115"/>
<circle fill="none" stroke="#000000" stroke-width="0.2835" stroke-miterlimit="10" cx="79.007" cy="58.283" r="10.205"/>
<circle fill="none" stroke="#000000" stroke-width="0.2835" stroke-miterlimit="10" cx="79.007" cy="115.543" r="10.205"/>
<circle fill="none" stroke="#000000" stroke-width="0.2835" stroke-miterlimit="10" cx="136.268" cy="58.283" r="10.205"/>
<circle fill="none" stroke="#000000" stroke-width="0.2835" stroke-miterlimit="10" cx="136.268" cy="115.543" r="10.205"/>
<rect x="79.007" y="58.281" fill="none" stroke="#000000" stroke-width="0.2835" stroke-miterlimit="10" width="57.261" height="57.261"/>
<circle fill="none" stroke="#000000" stroke-width="0.2835" stroke-miterlimit="10" cx="79.007" cy="219.94" r="8.646"/>
<circle fill="none" stroke="#000000" stroke-width="0.2835" stroke-miterlimit="10" cx="79.007" cy="255.94" r="8.646"/>
<circle fill="none" stroke="#000000" stroke-width="0.2835" stroke-miterlimit="10" cx="136.267" cy="255.94" r="8.646"/>
<circle fill="none" stroke="#000000" stroke-width="0.2835" stroke-miterlimit="10" cx="137.026" cy="219.685" r="8.646"/>
<circle fill="none" stroke="#000000" stroke-width="0.2835" stroke-miterlimit="10" cx="107.636" cy="219.94" r="8.646"/>
<circle fill="none" stroke="#000000" stroke-width="0.2835" stroke-miterlimit="10" cx="107.636" cy="318.669" r="8.646"/>
<circle fill="none" stroke="#000000" stroke-width="0.2835" stroke-miterlimit="10" cx="107.128" cy="252.674" r="9.212"/>
<rect x="79.007" y="219.939" fill="none" stroke="#000000" stroke-width="0.2835" stroke-miterlimit="10" width="57.261" height="36"/>
<rect x="50.037" y="6.896" fill="none" stroke="#000000" stroke-width="0.2835" stroke-miterlimit="10" width="115.202" height="364.252"/>
<path fill="none" stroke="#000000" stroke-width="0.2835" stroke-miterlimit="10" d="M76.539,10.8h-9.07
	c-2.506,0-4.536,2.03-4.536,4.536c0,2.505,2.03,4.533,4.536,4.533h9.07c2.504,0,4.534-2.028,4.534-4.533
	C81.075,12.828,79.043,10.8,76.539,10.8z"/>
<path fill="none" stroke="#000000" stroke-width="0.2835" stroke-miterlimit="10" d="M76.539,358.173h-9.07
	c-2.506,0-4.536,2.03-4.536,4.536c0,2.505,2.03,4.533,4.536,4.533h9.07c2.504,0,4.534-2.028,4.534-4.533
	C81.075,360.201,79.043,358.173,76.539,358.173z"/>
<path fill="none" stroke="#000000" stroke-width="0.2835" stroke-miterlimit="10" d="M148.36,10.8h-9.069
	c-2.506,0-4.537,2.03-4.537,4.536c0,2.505,2.031,4.533,4.537,4.533h9.069c2.504,0,4.535-2.028,4.535-4.533
	C152.896,12.828,150.864,10.8,148.36,10.8z"/>
<path fill="none" stroke="#000000" stroke-width="0.2835" stroke-miterlimit="10" d="M148.36,358.173h-9.069
	c-2.506,0-4.537,2.03-4.537,4.536c0,2.505,2.031,4.533,4.537,4.533h9.069c2.504,0,4.535-2.028,4.535-4.533
	C152.896,360.201,150.864,358.173,148.36,358.173z"/>
<rect x="50.036" y="6.896" fill="none" stroke="#000000" stroke-width="0.2835" stroke-miterlimit="10" width="115.202" height="21.971"/>
<rect x="50.036" y="349.178" fill="none" stroke="#000000" stroke-width="0.2835" stroke-miterlimit="10" width="115.202" height="21.97"/>
<circle fill="none" stroke="#000000" stroke-width="0.2835" stroke-miterlimit="10" cx="222.674" cy="58.283" r="10.205"/>
<circle fill="none" stroke="#000000" stroke-width="0.2835" stroke-miterlimit="10" cx="222.674" cy="115.543" r="10.205"/>
<circle fill="none" stroke="#000000" stroke-width="0.2835" stroke-miterlimit="10" cx="279.936" cy="58.283" r="10.205"/>
<circle fill="none" stroke="#000000" stroke-width="0.2835" stroke-miterlimit="10" cx="279.936" cy="115.543" r="10.205"/>
<circle fill="none" stroke="#000000" stroke-width="0.2835" stroke-miterlimit="10" cx="222.674" cy="219.94" r="8.646"/>
<circle fill="none" stroke="#000000" stroke-width="0.2835" stroke-miterlimit="10" cx="222.674" cy="255.94" r="8.646"/>
<circle fill="none" stroke="#000000" stroke-width="0.2835" stroke-miterlimit="10" cx="279.934" cy="255.94" r="8.646"/>
<circle fill="none" stroke="#000000" stroke-width="0.2835" stroke-miterlimit="10" cx="251.303" cy="219.94" r="8.646"/>
<circle fill="none" stroke="#000000" stroke-width="0.2835" stroke-miterlimit="10" cx="279.936" cy="219.94" r="8.646"/>
<circle fill="none" stroke="#000000" stroke-width="0.2835" stroke-miterlimit="10" cx="251.303" cy="318.669" r="8.646"/>
<circle fill="none" stroke="#000000" stroke-width="0.2835" stroke-miterlimit="10" cx="250.795" cy="252.674" r="9.212"/>
<rect x="193.703" y="6.896" fill="none" stroke="#000000" stroke-width="0.2835" stroke-miterlimit="10" width="115.201" height="364.252"/>
<path fill="none" stroke="#000000" stroke-width="0.2835" stroke-miterlimit="10" d="M220.205,10.8h-9.07
	c-2.506,0-4.535,2.03-4.535,4.536c0,2.505,2.029,4.533,4.535,4.533h9.07c2.504,0,4.535-2.028,4.535-4.533
	C224.742,12.828,222.709,10.8,220.205,10.8z"/>
<path fill="none" stroke="#000000" stroke-width="0.2835" stroke-miterlimit="10" d="M220.205,358.173h-9.07
	c-2.506,0-4.535,2.03-4.535,4.536c0,2.505,2.029,4.533,4.535,4.533h9.07c2.504,0,4.535-2.028,4.535-4.533
	C224.742,360.201,222.709,358.173,220.205,358.173z"/>
<path fill="none" stroke="#000000" stroke-width="0.2835" stroke-miterlimit="10" d="M292.027,10.8h-9.069
	c-2.506,0-4.537,2.03-4.537,4.536c0,2.505,2.031,4.533,4.537,4.533h9.069c2.504,0,4.535-2.028,4.535-4.533
	C296.562,12.828,294.531,10.8,292.027,10.8z"/>
<path fill="none" stroke="#000000" stroke-width="0.2835" stroke-miterlimit="10" d="M292.027,358.173h-9.069
	c-2.506,0-4.537,2.03-4.537,4.536c0,2.505,2.031,4.533,4.537,4.533h9.069c2.504,0,4.535-2.028,4.535-4.533
	C296.562,360.201,294.531,358.173,292.027,358.173z"/>
<circle fill="none" stroke="#000000" stroke-width="0.2835" stroke-miterlimit="10" cx="279.934" cy="219.685" r="14.003"/>
<circle fill="none" stroke="#000000" stroke-width="0.2835" stroke-miterlimit="10" cx="251.303" cy="219.685" r="14.003"/>
<circle fill="none" stroke="#000000" stroke-width="0.2835" stroke-miterlimit="10" cx="251.303" cy="318.669" r="14.003"/>
<circle fill="none" stroke="#000000" stroke-width="0.2835" stroke-miterlimit="10" cx="222.674" cy="219.685" r="14.003"/>
<circle fill="none" stroke="#000000" stroke-width="0.2835" stroke-miterlimit="10" cx="222.674" cy="255.938" r="14.003"/>
<circle fill="none" stroke="#000000" stroke-width="0.2835" stroke-miterlimit="10" cx="279.936" cy="255.938" r="14.003"/>
<path fill="none" stroke="#000000" stroke-width="0.2835" stroke-miterlimit="10" d="M248.609,58.28
	c0,14.326-11.611,25.939-25.937,25.939s-25.937-11.613-25.937-25.939c0-14.321,11.611-25.935,25.937-25.935
	S248.609,43.958,248.609,58.28z"/>
<circle fill="none" stroke="#000000" stroke-width="0.2835" stroke-miterlimit="10" cx="279.936" cy="58.281" r="17.008"/>
<circle fill="none" stroke="#000000" stroke-width="0.2835" stroke-miterlimit="10" cx="279.936" cy="115.541" r="17.008"/>
<circle fill="none" stroke="#000000" stroke-width="0.2835" stroke-miterlimit="10" cx="222.75" cy="115.541" r="17.008"/>
<g enable-background="new    ">
	<path d="M214.675,90.376c-0.358,0.299-0.87,0.448-1.535,0.448h-1.274v2.201h-1.271v-6.12h2.628c0.605,0,1.089,0.157,1.449,0.473
		s0.54,0.805,0.54,1.466C215.212,89.567,215.033,90.077,214.675,90.376z M213.699,88.171c-0.162-0.135-0.39-0.203-0.682-0.203
		h-1.152v1.802h1.152c0.292,0,0.52-0.073,0.682-0.22c0.161-0.146,0.242-0.379,0.242-0.697S213.86,88.307,213.699,88.171z"/>
	<path d="M217.404,93.026h-1.271v-6.12h1.271V93.026z"/>
	<path d="M223.047,86.906v1.083h-1.83v5.037h-1.287v-5.037h-1.84v-1.083H223.047z"/>
	<path d="M224.379,87.544c0.494-0.503,1.121-0.755,1.882-0.755c1.019,0,1.764,0.337,2.235,1.013c0.26,0.379,0.399,0.76,0.418,1.142
		h-1.278c-0.081-0.293-0.187-0.515-0.313-0.664c-0.228-0.266-0.565-0.398-1.013-0.398c-0.456,0-0.815,0.188-1.078,0.562
		s-0.395,0.906-0.395,1.593s0.139,1.2,0.417,1.542c0.277,0.342,0.629,0.513,1.058,0.513c0.438,0,0.772-0.146,1.003-0.439
		c0.127-0.158,0.232-0.395,0.316-0.71h1.271c-0.109,0.667-0.391,1.209-0.84,1.627c-0.451,0.418-1.028,0.627-1.732,0.627
		c-0.871,0-1.555-0.282-2.054-0.847c-0.498-0.567-0.747-1.346-0.747-2.334C223.529,88.947,223.812,88.123,224.379,87.544z"/>
	<path d="M229.928,93.026v-6.12h1.271v2.333h2.379v-2.333h1.271v6.12h-1.271v-2.732h-2.379v2.732H229.928z"/>
</g>
<g enable-background="new    ">
	<path d="M211.512,135.752h4.363v1.075h-3.094v1.408h2.712v1.062h-2.712v2.566h-1.27V135.752z"/>
	<path d="M220.627,135.902c0.227,0.097,0.417,0.239,0.574,0.428c0.129,0.155,0.231,0.327,0.307,0.515
		c0.076,0.188,0.113,0.403,0.113,0.644c0,0.291-0.072,0.577-0.219,0.857c-0.147,0.281-0.39,0.48-0.728,0.597
		c0.282,0.113,0.482,0.274,0.601,0.483c0.117,0.209,0.176,0.528,0.176,0.957v0.411c0,0.279,0.012,0.469,0.034,0.569
		c0.034,0.157,0.112,0.273,0.235,0.349v0.153h-1.411c-0.038-0.136-0.066-0.245-0.083-0.328c-0.033-0.172-0.051-0.348-0.055-0.527
		l-0.008-0.568c-0.005-0.391-0.072-0.651-0.202-0.781s-0.372-0.195-0.729-0.195h-1.249v2.4h-1.25v-6.12h2.928
		C220.08,135.752,220.402,135.805,220.627,135.902z M217.984,136.807v1.645h1.377c0.273,0,0.478-0.033,0.614-0.1
		c0.242-0.116,0.363-0.346,0.363-0.689c0-0.371-0.117-0.62-0.351-0.747c-0.133-0.072-0.329-0.108-0.592-0.108H217.984z"/>
	<path d="M227.373,136.827h-3.238v1.3h2.973v1.063h-2.973v1.573h3.388v1.101h-4.638v-6.12h4.488V136.827z"/>
	<path d="M233.959,140.074c-0.108,0.352-0.268,0.643-0.477,0.875l0.703,0.662l-0.668,0.695l-0.734-0.697
		c-0.225,0.136-0.418,0.232-0.582,0.287c-0.274,0.092-0.603,0.138-0.984,0.138c-0.799,0-1.458-0.237-1.979-0.714
		c-0.632-0.573-0.947-1.414-0.947-2.524c0-1.118,0.323-1.964,0.971-2.537c0.529-0.468,1.187-0.702,1.973-0.702
		c0.791,0,1.456,0.248,1.993,0.743c0.62,0.573,0.931,1.375,0.931,2.404C234.158,139.25,234.092,139.706,233.959,140.074z
		 M231.638,140.897c0.075-0.02,0.171-0.054,0.287-0.104l-0.62-0.59l0.657-0.686l0.622,0.586c0.098-0.199,0.164-0.374,0.203-0.523
		c0.061-0.225,0.092-0.485,0.092-0.785c0-0.686-0.141-1.217-0.422-1.592s-0.691-0.562-1.23-0.562c-0.507,0-0.911,0.18-1.213,0.54
		c-0.302,0.359-0.453,0.898-0.453,1.615c0,0.839,0.217,1.439,0.648,1.802c0.279,0.235,0.615,0.354,1.006,0.354
		C231.361,140.951,231.502,140.933,231.638,140.897z"/>
</g>
<g enable-background="new    ">
	<path d="M242.537,184.181h1.329l-2.087,6.12h-1.208l-2.069-6.12h1.365l1.329,4.646L242.537,184.181z"/>
	<path d="M245.887,183.993h0.985l-2.383,6.308h-0.976L245.887,183.993z"/>
	<path d="M251.704,189.757c-0.462,0.477-1.131,0.714-2.006,0.714c-0.874,0-1.544-0.237-2.005-0.714
		c-0.621-0.584-0.931-1.426-0.931-2.524c0-1.121,0.31-1.963,0.931-2.524c0.461-0.477,1.131-0.715,2.005-0.715
		c0.875,0,1.544,0.238,2.006,0.715c0.617,0.562,0.926,1.403,0.926,2.524C252.63,188.331,252.321,189.173,251.704,189.757z
		 M250.904,188.827c0.298-0.374,0.447-0.905,0.447-1.595c0-0.687-0.149-1.218-0.447-1.593c-0.297-0.375-0.699-0.562-1.206-0.562
		s-0.911,0.187-1.212,0.561c-0.303,0.374-0.453,0.905-0.453,1.595s0.15,1.221,0.453,1.595c0.301,0.373,0.705,0.561,1.212,0.561
		S250.607,189.2,250.904,188.827z"/>
	<path d="M254.19,184.82c0.493-0.503,1.12-0.755,1.882-0.755c1.019,0,1.764,0.337,2.234,1.013c0.26,0.379,0.4,0.76,0.419,1.142
		h-1.278c-0.082-0.293-0.187-0.515-0.314-0.664c-0.227-0.266-0.564-0.398-1.012-0.398c-0.456,0-0.815,0.188-1.078,0.562
		c-0.264,0.375-0.395,0.906-0.395,1.593s0.139,1.2,0.416,1.542s0.63,0.513,1.059,0.513c0.438,0,0.772-0.146,1.002-0.439
		c0.128-0.158,0.233-0.395,0.317-0.71h1.271c-0.109,0.667-0.39,1.209-0.84,1.627c-0.451,0.418-1.027,0.627-1.731,0.627
		c-0.871,0-1.556-0.282-2.054-0.847c-0.498-0.567-0.748-1.346-0.748-2.334C253.34,186.222,253.623,185.399,254.19,184.82z"/>
	<path d="M264.193,184.181v1.083h-1.83v5.037h-1.287v-5.037h-1.84v-1.083H264.193z"/>
</g>
<g enable-background="new    ">
	<path d="M220.899,197.816v-0.806c0.372-0.017,0.634-0.041,0.782-0.074c0.238-0.053,0.432-0.158,0.58-0.316
		c0.102-0.107,0.18-0.251,0.232-0.432c0.03-0.107,0.045-0.188,0.045-0.24h0.988v6.021h-1.213v-4.152H220.899z"/>
</g>
<g enable-background="new    ">
	<path d="M249.483,200.784c0.169-0.401,0.567-0.826,1.196-1.274c0.545-0.391,0.898-0.67,1.059-0.839
		c0.246-0.263,0.369-0.551,0.369-0.863c0-0.255-0.07-0.467-0.211-0.636c-0.142-0.169-0.344-0.253-0.607-0.253
		c-0.359,0-0.604,0.134-0.734,0.402c-0.074,0.155-0.119,0.401-0.133,0.739h-1.15c0.02-0.512,0.112-0.926,0.279-1.241
		c0.315-0.601,0.877-0.901,1.683-0.901c0.638,0,1.145,0.177,1.521,0.529s0.565,0.82,0.565,1.401c0,0.445-0.133,0.842-0.399,1.188
		c-0.175,0.229-0.462,0.486-0.861,0.769l-0.474,0.336c-0.297,0.211-0.5,0.363-0.609,0.457s-0.201,0.203-0.276,0.328h2.628v1.042
		h-4.123C249.217,201.536,249.309,201.142,249.483,200.784z"/>
</g>
<g enable-background="new    ">
	<path d="M278.955,200.12c0,0.24,0.039,0.44,0.116,0.598c0.144,0.291,0.404,0.437,0.782,0.437c0.232,0,0.436-0.08,0.607-0.239
		c0.173-0.159,0.259-0.388,0.259-0.688c0-0.396-0.159-0.66-0.479-0.793c-0.183-0.074-0.47-0.111-0.861-0.111v-0.848
		c0.383-0.006,0.65-0.043,0.803-0.112c0.262-0.116,0.393-0.352,0.393-0.706c0-0.229-0.066-0.416-0.201-0.561
		c-0.133-0.144-0.322-0.216-0.564-0.216c-0.279,0-0.484,0.089-0.615,0.266c-0.131,0.178-0.193,0.414-0.188,0.711H277.9
		c0.012-0.3,0.062-0.583,0.154-0.852c0.096-0.235,0.248-0.453,0.455-0.652c0.155-0.141,0.34-0.249,0.553-0.323
		c0.213-0.075,0.474-0.112,0.783-0.112c0.575,0,1.039,0.148,1.392,0.446s0.528,0.697,0.528,1.198c0,0.354-0.104,0.653-0.314,0.896
		c-0.133,0.152-0.271,0.256-0.416,0.312c0.108,0,0.264,0.093,0.465,0.278c0.303,0.279,0.453,0.661,0.453,1.146
		c0,0.51-0.176,0.957-0.529,1.344c-0.352,0.386-0.874,0.579-1.565,0.579c-0.852,0-1.444-0.278-1.775-0.835
		c-0.175-0.296-0.271-0.684-0.29-1.162H278.955z"/>
</g>
<g enable-background="new    ">
	<path d="M276.318,277.924c-0.463,0.477-1.131,0.714-2.006,0.714s-1.544-0.237-2.006-0.714c-0.62-0.584-0.93-1.426-0.93-2.524
		c0-1.121,0.31-1.963,0.93-2.524c0.462-0.477,1.131-0.715,2.006-0.715s1.543,0.238,2.006,0.715c0.617,0.562,0.926,1.403,0.926,2.524
		C277.244,276.498,276.936,277.34,276.318,277.924z M275.519,276.994c0.298-0.374,0.446-0.905,0.446-1.595
		c0-0.687-0.148-1.218-0.446-1.593s-0.7-0.562-1.206-0.562c-0.507,0-0.911,0.187-1.213,0.561s-0.453,0.905-0.453,1.595
		s0.151,1.221,0.453,1.595c0.302,0.373,0.706,0.561,1.213,0.561C274.818,277.555,275.221,277.367,275.519,276.994z"/>
	<path d="M278.22,272.348h1.3v3.759c0,0.42,0.049,0.728,0.148,0.921c0.154,0.343,0.491,0.515,1.01,0.515
		c0.516,0,0.852-0.172,1.006-0.515c0.099-0.193,0.148-0.501,0.148-0.921v-3.759h1.3v3.762c0,0.65-0.101,1.157-0.303,1.52
		c-0.376,0.664-1.093,0.997-2.151,0.997s-1.777-0.333-2.156-0.997c-0.201-0.362-0.302-0.869-0.302-1.52V272.348z"/>
	<path d="M288.808,272.348v1.083h-1.831v5.037h-1.287v-5.037h-1.84v-1.083H288.808z"/>
</g>
<g enable-background="new    ">
	<path d="M211.51,272.356h4.363v1.075h-3.094v1.408h2.712v1.062h-2.712v2.566h-1.27V272.356z"/>
	<path d="M220.625,272.505c0.227,0.097,0.417,0.239,0.574,0.428c0.129,0.155,0.231,0.327,0.307,0.515
		c0.076,0.188,0.113,0.403,0.113,0.644c0,0.291-0.072,0.577-0.219,0.857c-0.147,0.281-0.39,0.48-0.728,0.597
		c0.282,0.113,0.482,0.274,0.601,0.483c0.117,0.209,0.176,0.528,0.176,0.957v0.411c0,0.279,0.012,0.469,0.034,0.569
		c0.034,0.157,0.112,0.273,0.235,0.349v0.153h-1.411c-0.038-0.136-0.066-0.245-0.083-0.328c-0.033-0.172-0.051-0.348-0.055-0.527
		l-0.008-0.568c-0.005-0.391-0.072-0.651-0.202-0.781s-0.372-0.195-0.729-0.195h-1.249v2.4h-1.25v-6.12h2.928
		C220.078,272.356,220.4,272.408,220.625,272.505z M217.982,273.41v1.645h1.377c0.273,0,0.478-0.033,0.614-0.1
		c0.242-0.116,0.363-0.346,0.363-0.689c0-0.371-0.117-0.62-0.351-0.747c-0.133-0.072-0.329-0.108-0.592-0.108H217.982z"/>
	<path d="M227.371,273.431h-3.238v1.3h2.973v1.063h-2.973v1.573h3.388v1.101h-4.638v-6.12h4.488V273.431z"/>
	<path d="M233.957,276.678c-0.108,0.352-0.268,0.643-0.477,0.875l0.703,0.662l-0.668,0.695l-0.734-0.697
		c-0.225,0.136-0.418,0.232-0.582,0.287c-0.274,0.092-0.603,0.138-0.984,0.138c-0.799,0-1.458-0.237-1.979-0.714
		c-0.632-0.573-0.947-1.414-0.947-2.524c0-1.118,0.323-1.964,0.971-2.537c0.529-0.468,1.187-0.702,1.973-0.702
		c0.791,0,1.456,0.248,1.993,0.743c0.62,0.573,0.931,1.375,0.931,2.404C234.156,275.854,234.09,276.31,233.957,276.678z
		 M231.636,277.5c0.075-0.02,0.171-0.054,0.287-0.104l-0.62-0.59l0.657-0.686l0.622,0.586c0.098-0.199,0.164-0.374,0.203-0.523
		c0.061-0.225,0.092-0.485,0.092-0.785c0-0.686-0.141-1.217-0.422-1.592s-0.691-0.562-1.23-0.562c-0.507,0-0.911,0.18-1.213,0.54
		c-0.302,0.359-0.453,0.898-0.453,1.615c0,0.839,0.217,1.439,0.648,1.802c0.279,0.235,0.615,0.354,1.006,0.354
		C231.359,277.555,231.5,277.536,231.636,277.5z"/>
</g>
<g enable-background="new    ">
	<path d="M239.52,265.101l0.809,3.505l0.176,0.975l0.176-0.955l0.691-3.524h1.35l0.728,3.504l0.187,0.976l0.188-0.938l0.815-3.542
		h1.303l-1.723,6.12h-1.225l-0.738-3.579l-0.216-1.184l-0.216,1.184l-0.739,3.579h-1.188l-1.734-6.12H239.52z"/>
	<path d="M247.998,265.101h1.447l2.166,6.12h-1.387l-0.404-1.258h-2.254l-0.415,1.258h-1.338L247.998,265.101z M247.914,268.908
		h1.568l-0.773-2.408L247.914,268.908z"/>
	<path d="M255.344,265.101h1.328l-2.086,6.12h-1.209l-2.069-6.12h1.366l1.328,4.646L255.344,265.101z"/>
	<path d="M261.961,266.184h-3.239v1.3h2.974v1.063h-2.974v1.573h3.388v1.101h-4.638v-6.12h4.489V266.184z"/>
</g>
<g enable-background="new    ">
	<path d="M246.526,295.368h1.841v6.12h-1.192v-4.14c0-0.119,0.001-0.286,0.005-0.501c0.002-0.214,0.004-0.38,0.004-0.496
		l-1.16,5.137h-1.243l-1.151-5.137c0,0.116,0.001,0.282,0.004,0.496c0.003,0.215,0.004,0.382,0.004,0.501v4.14h-1.191v-6.12h1.861
		l1.113,4.812L246.526,295.368z"/>
	<path d="M250.717,301.489h-1.271v-6.12h1.271V301.489z"/>
	<path d="M255.498,295.501c0.43,0.141,0.777,0.399,1.044,0.776c0.213,0.305,0.358,0.634,0.437,0.988
		c0.077,0.354,0.115,0.691,0.115,1.013c0,0.814-0.162,1.503-0.49,2.068c-0.443,0.761-1.127,1.142-2.053,1.142h-2.639v-6.12h2.639
		C254.931,295.373,255.246,295.418,255.498,295.501z M253.154,296.431v3.995h1.181c0.604,0,1.026-0.298,1.265-0.894
		c0.13-0.326,0.195-0.715,0.195-1.166c0-0.623-0.098-1.102-0.293-1.436c-0.195-0.333-0.584-0.5-1.167-0.5H253.154z"/>
	<path d="M259.221,301.489h-1.271v-6.12h1.271V301.489z"/>
</g>
<g enable-background="new    ">
	<path d="M275.762,135.902c0.225,0.097,0.416,0.239,0.572,0.428c0.13,0.155,0.232,0.327,0.309,0.515
		c0.075,0.188,0.113,0.403,0.113,0.644c0,0.291-0.074,0.577-0.221,0.857c-0.146,0.281-0.389,0.48-0.727,0.597
		c0.283,0.113,0.482,0.274,0.6,0.483c0.118,0.209,0.178,0.528,0.178,0.957v0.411c0,0.279,0.011,0.469,0.033,0.569
		c0.033,0.157,0.112,0.273,0.236,0.349v0.153h-1.412c-0.039-0.136-0.066-0.245-0.083-0.328c-0.033-0.172-0.052-0.348-0.054-0.527
		l-0.009-0.568c-0.005-0.391-0.072-0.651-0.202-0.781c-0.129-0.13-0.373-0.195-0.729-0.195h-1.249v2.4h-1.25v-6.12h2.928
		C275.214,135.752,275.536,135.805,275.762,135.902z M273.118,136.807v1.645h1.376c0.273,0,0.479-0.033,0.615-0.1
		c0.242-0.116,0.363-0.346,0.363-0.689c0-0.371-0.117-0.62-0.352-0.747c-0.131-0.072-0.328-0.108-0.592-0.108H273.118z"/>
	<path d="M282.506,136.827h-3.238v1.3h2.973v1.063h-2.973v1.573h3.389v1.101h-4.639v-6.12h4.488V136.827z"/>
	<path d="M284.574,139.975c0.04,0.28,0.117,0.489,0.233,0.627c0.212,0.252,0.575,0.378,1.089,0.378c0.309,0,0.559-0.033,0.751-0.1
		c0.364-0.127,0.547-0.363,0.547-0.71c0-0.202-0.089-0.358-0.268-0.469c-0.179-0.108-0.462-0.204-0.851-0.287l-0.662-0.145
		c-0.65-0.145-1.099-0.301-1.342-0.47c-0.412-0.282-0.619-0.724-0.619-1.324c0-0.549,0.202-1.004,0.605-1.366
		c0.403-0.363,0.996-0.544,1.778-0.544c0.653,0,1.21,0.171,1.671,0.513s0.702,0.838,0.725,1.488h-1.229
		c-0.023-0.368-0.188-0.63-0.494-0.784c-0.205-0.103-0.459-0.154-0.762-0.154c-0.338,0-0.607,0.066-0.809,0.199
		c-0.202,0.133-0.303,0.318-0.303,0.557c0,0.219,0.1,0.382,0.298,0.49c0.128,0.072,0.399,0.156,0.813,0.253l1.074,0.254
		c0.471,0.11,0.823,0.259,1.059,0.444c0.364,0.287,0.547,0.704,0.547,1.249c0,0.56-0.217,1.024-0.648,1.394
		s-1.043,0.555-1.832,0.555c-0.806,0-1.439-0.183-1.901-0.547c-0.462-0.363-0.692-0.864-0.692-1.501H284.574z"/>
</g>
<g enable-background="new    ">
	<path d="M266.688,87.038c0.43,0.141,0.777,0.399,1.043,0.776c0.213,0.305,0.358,0.634,0.436,0.988
		c0.078,0.354,0.117,0.691,0.117,1.013c0,0.814-0.164,1.503-0.49,2.068c-0.443,0.761-1.128,1.142-2.053,1.142h-2.639v-6.12h2.639
		C266.119,86.91,266.436,86.955,266.688,87.038z M264.342,87.968v3.995h1.182c0.604,0,1.025-0.298,1.264-0.894
		c0.131-0.326,0.196-0.715,0.196-1.166c0-0.623-0.098-1.102-0.294-1.436c-0.195-0.333-0.584-0.5-1.166-0.5H264.342z"/>
	<path d="M273.768,87.989h-3.238v1.3h2.973v1.063h-2.973v1.573h3.389v1.101h-4.639v-6.12h4.488V87.989z"/>
	<path d="M279.361,86.906v1.083h-1.831v5.037h-1.287v-5.037h-1.839v-1.083H279.361z"/>
	<path d="M280.109,86.906h1.299v3.759c0,0.42,0.05,0.728,0.148,0.921c0.155,0.343,0.492,0.515,1.01,0.515
		c0.516,0,0.852-0.172,1.006-0.515c0.1-0.193,0.148-0.501,0.148-0.921v-3.759h1.301v3.762c0,0.65-0.102,1.157-0.303,1.52
		c-0.377,0.664-1.094,0.997-2.152,0.997s-1.776-0.333-2.155-0.997c-0.202-0.362-0.302-0.869-0.302-1.52V86.906z"/>
	<path d="M286.229,86.906h1.342l2.43,4.268v-4.268h1.191v6.12h-1.279l-2.491-4.343v4.343h-1.192V86.906z"/>
	<path d="M296.917,87.989h-3.239v1.3h2.974v1.063h-2.974v1.573h3.389v1.101h-4.639v-6.12h4.489V87.989z"/>
</g>
<g>
	<path fill="#0F1031" stroke="#000000" stroke-width="0.2835" stroke-miterlimit="10" d="M259.082,148.306
		c0.078-0.434,0.126-0.875,0.126-1.33c0-4.102-3.336-7.438-7.438-7.438c-2.979,0-5.549,1.768-6.731,4.305
		c-3.334,0.734-5.839,3.707-5.839,7.258c0,4.104,3.335,7.438,7.438,7.438c0.668,0,1.312-0.099,1.93-0.265
		c1.299,2.181,3.67,3.646,6.385,3.646c4.102,0,7.438-3.334,7.438-7.437C262.389,151.913,261.074,149.642,259.082,148.306z
		 M251.771,141.192c3.188,0,5.785,2.597,5.783,5.783c0,0.187-0.011,0.363-0.027,0.541c-0.805-0.299-1.67-0.471-2.576-0.471
		c-0.668,0-1.312,0.1-1.93,0.264c-1.235-2.074-3.449-3.492-6-3.625C248.066,142.181,249.807,141.192,251.771,141.192z
		 M249.167,154.485c0-0.184,0.011-0.364,0.026-0.543c0.688,0.256,1.425,0.412,2.191,0.451c-0.51,0.732-1.184,1.344-1.968,1.775
		C249.255,155.638,249.167,155.071,249.167,154.485z M251.771,152.763c-0.772,0-1.51-0.156-2.185-0.434
		c0.5-1.24,1.417-2.271,2.579-2.91c0.164,0.533,0.253,1.098,0.253,1.686c0,0.568-0.085,1.117-0.239,1.638
		C252.046,152.751,251.91,152.763,251.771,152.763z M245.986,146.976c0-0.567,0.087-1.117,0.24-1.637
		c0.137-0.012,0.271-0.021,0.41-0.021c2.012,0,3.786,1.037,4.823,2.605c-1.464,0.779-2.632,2.035-3.31,3.561
		C246.835,150.423,245.986,148.798,245.986,146.976z M253.718,148.835c0.396-0.086,0.81-0.135,1.231-0.135
		c0.773,0,1.511,0.153,2.185,0.432c-0.582,1.443-1.729,2.604-3.171,3.193c0.066-0.398,0.109-0.808,0.109-1.226
		C254.073,150.312,253.945,149.552,253.718,148.835z M246.637,156.888c-3.188,0-5.783-2.596-5.783-5.783
		c0-2.416,1.485-4.485,3.592-5.354c-0.065,0.399-0.107,0.809-0.107,1.227c0,2.572,1.312,4.842,3.305,6.181
		c-0.078,0.432-0.125,0.875-0.125,1.327c0,0.791,0.125,1.552,0.354,2.269C247.473,156.839,247.061,156.888,246.637,156.888z
		 M254.95,160.269c-2.015,0-3.789-1.037-4.825-2.604c1.42-0.759,2.561-1.968,3.245-3.431c2.33-0.512,4.252-2.118,5.198-4.258
		c1.317,1.062,2.166,2.688,2.166,4.506C260.734,157.675,258.141,160.269,254.95,160.269z"/>
	
		<rect x="243.357" y="159.413" fill="#0F1031" stroke="#000000" stroke-width="0.2835" stroke-miterlimit="10" width="1.652" height="11.796"/>
	
		<rect x="247.85" y="163.347" fill="#0F1031" stroke="#000000" stroke-width="0.2835" stroke-miterlimit="10" width="1.649" height="11.794"/>
	
		<rect x="252.923" y="165.31" fill="#0F1031" stroke="#000000" stroke-width="0.2835" stroke-miterlimit="10" width="1.652" height="11.796"/>
</g>
<polygon points="245.408,199.245 243.229,197.064 243.229,198.536 228.568,198.536 228.568,199.953 243.229,199.953 
	243.229,201.425 "/>
<polygon points="274.037,199.245 271.857,197.064 271.857,198.536 257.197,198.536 257.197,199.953 271.857,199.953 
	271.857,201.425 "/>
<g enable-background="new    ">
	<path d="M239.386,11.76v1.083h-1.831v5.037h-1.287v-5.037h-1.84V11.76H239.386z"/>
	<path d="M244.659,12.843h-3.239v1.3h2.974v1.063h-2.974v1.573h3.389v1.101h-4.639v-6.12h4.489V12.843z"/>
	<path d="M250.332,12.843h-3.239v1.3h2.974v1.063h-2.974v1.573h3.388v1.101h-4.638v-6.12h4.489V12.843z"/>
	<path d="M251.457,11.76h1.34l2.43,4.268V11.76h1.191v6.12h-1.277l-2.492-4.343v4.343h-1.191V11.76z"/>
	<path d="M258.54,15.99c0.04,0.28,0.118,0.489,0.233,0.627c0.212,0.252,0.575,0.378,1.09,0.378c0.308,0,0.559-0.033,0.75-0.1
		c0.365-0.127,0.547-0.363,0.547-0.71c0-0.202-0.09-0.358-0.268-0.469c-0.179-0.108-0.462-0.204-0.85-0.287l-0.663-0.145
		c-0.651-0.145-1.099-0.301-1.342-0.47c-0.413-0.282-0.619-0.724-0.619-1.324c0-0.549,0.202-1.004,0.605-1.366
		c0.403-0.363,0.996-0.544,1.778-0.544c0.652,0,1.209,0.171,1.67,0.513s0.703,0.838,0.726,1.488h-1.229
		c-0.021-0.368-0.187-0.63-0.493-0.784c-0.204-0.103-0.458-0.154-0.763-0.154c-0.337,0-0.606,0.066-0.809,0.199
		c-0.201,0.133-0.302,0.318-0.302,0.557c0,0.219,0.099,0.382,0.298,0.49c0.128,0.072,0.398,0.156,0.813,0.253l1.073,0.254
		c0.471,0.11,0.824,0.259,1.059,0.444c0.365,0.287,0.548,0.704,0.548,1.249c0,0.56-0.216,1.024-0.648,1.394
		s-1.043,0.555-1.832,0.555c-0.806,0-1.439-0.183-1.901-0.547c-0.461-0.363-0.692-0.864-0.692-1.501H258.54z"/>
	<path d="M266.783,11.76h1.449l-2.047,3.825v2.295h-1.279v-2.295l-2.117-3.825h1.507l1.271,2.665L266.783,11.76z"/>
</g>
<g enable-background="new    ">
	<path d="M247.451,27.541c-0.463,0.477-1.131,0.714-2.006,0.714s-1.544-0.237-2.006-0.714c-0.62-0.584-0.93-1.426-0.93-2.524
		c0-1.121,0.31-1.963,0.93-2.524c0.462-0.477,1.131-0.715,2.006-0.715s1.543,0.238,2.006,0.715c0.617,0.562,0.926,1.403,0.926,2.524
		C248.377,26.115,248.068,26.957,247.451,27.541z M246.651,26.612c0.298-0.374,0.446-0.905,0.446-1.595
		c0-0.687-0.148-1.218-0.446-1.593s-0.7-0.562-1.206-0.562c-0.507,0-0.911,0.187-1.213,0.561s-0.453,0.905-0.453,1.595
		s0.151,1.221,0.453,1.595c0.302,0.373,0.706,0.561,1.213,0.561C245.951,27.172,246.354,26.985,246.651,26.612z"/>
	<path d="M250.273,26.196c0.041,0.28,0.118,0.489,0.234,0.627c0.211,0.252,0.574,0.378,1.089,0.378c0.308,0,0.559-0.033,0.751-0.1
		c0.364-0.127,0.547-0.363,0.547-0.71c0-0.202-0.09-0.358-0.268-0.469c-0.18-0.108-0.463-0.204-0.851-0.287l-0.663-0.145
		c-0.65-0.145-1.098-0.301-1.342-0.47c-0.412-0.282-0.619-0.724-0.619-1.324c0-0.549,0.203-1.004,0.605-1.366
		c0.404-0.363,0.996-0.544,1.779-0.544c0.652,0,1.209,0.171,1.67,0.513s0.703,0.838,0.725,1.488h-1.229
		c-0.022-0.368-0.188-0.63-0.494-0.784c-0.204-0.103-0.458-0.154-0.762-0.154c-0.338,0-0.607,0.066-0.809,0.199
		s-0.303,0.318-0.303,0.557c0,0.219,0.1,0.382,0.299,0.49c0.127,0.072,0.398,0.156,0.812,0.253l1.074,0.254
		c0.471,0.11,0.824,0.259,1.059,0.444c0.365,0.287,0.547,0.704,0.547,1.249c0,0.56-0.216,1.024-0.648,1.394
		c-0.432,0.369-1.043,0.555-1.832,0.555c-0.805,0-1.439-0.183-1.9-0.547c-0.462-0.363-0.693-0.864-0.693-1.501H250.273z"/>
	<path d="M255.609,22.604c0.492-0.503,1.119-0.755,1.881-0.755c1.02,0,1.764,0.337,2.234,1.013c0.261,0.379,0.4,0.76,0.42,1.142
		h-1.279c-0.082-0.293-0.186-0.515-0.313-0.664c-0.228-0.266-0.565-0.398-1.013-0.398c-0.455,0-0.814,0.188-1.078,0.562
		s-0.395,0.906-0.395,1.593s0.139,1.2,0.416,1.542s0.631,0.513,1.059,0.513c0.438,0,0.773-0.146,1.003-0.439
		c0.128-0.158,0.233-0.395,0.317-0.71h1.27c-0.109,0.667-0.389,1.209-0.84,1.627c-0.45,0.418-1.027,0.627-1.73,0.627
		c-0.871,0-1.557-0.282-2.055-0.847c-0.498-0.567-0.748-1.346-0.748-2.334C254.758,24.006,255.042,23.183,255.609,22.604z"/>
</g>
<path d="M271.277,371.147h16.033"/>
<path d="M239.416,371.147h29.05"/>
<path d="M221.898,371.147h14.637"/>
</svg>
