<?xml version="1.0" encoding="utf-8"?>
<!-- Generator: Adobe Illustrator 16.0.0, SVG Export Plug-In . SVG Version: 6.00 Build 0)  -->
<!DOCTYPE svg PUBLIC "-//W3C//DTD SVG 1.1//EN" "http://www.w3.org/Graphics/SVG/1.1/DTD/svg11.dtd">
<svg version="1.1" id="Layer_1" xmlns="http://www.w3.org/2000/svg" xmlns:xlink="http://www.w3.org/1999/xlink" x="0px" y="0px"
	 width="129.314px" height="363.969px" viewBox="26.343 22.712 129.314 363.969"
	 enable-background="new 26.343 22.712 129.314 363.969" xml:space="preserve">
<rect x="26.343" y="22.712" fill="#2127A5" width="129.314" height="363.969"/>
<path fill="#0A0000" stroke="#020202" stroke-width="0.2835" stroke-miterlimit="10" d="M52.716,26.616h-9.07
	c-2.506,0-4.536,2.029-4.536,4.535s2.03,4.534,4.536,4.534h9.07c2.504,0,4.535-2.028,4.535-4.534
	C57.251,28.645,55.22,26.616,52.716,26.616z"/>
<path fill="#0A0000" stroke="#020202" stroke-width="0.2835" stroke-miterlimit="10" d="M138.357,26.616h-9.068
	c-2.508,0-4.536,2.029-4.536,4.535s2.028,4.534,4.536,4.534h9.068c2.504,0,4.535-2.028,4.535-4.534
	C142.893,28.645,140.861,26.616,138.357,26.616z"/>
<path fill="#0A0000" stroke="#020202" stroke-width="0.2835" stroke-miterlimit="10" d="M138.357,373.704h-9.068
	c-2.508,0-4.536,2.03-4.536,4.536c0,2.505,2.028,4.534,4.536,4.534h9.068c2.504,0,4.535-2.029,4.535-4.534
	C142.893,375.735,140.861,373.704,138.357,373.704z"/>
<path fill="#0A0000" stroke="#020202" stroke-width="0.2835" stroke-miterlimit="10" d="M52.716,373.704h-9.07
	c-2.506,0-4.536,2.03-4.536,4.536c0,2.505,2.03,4.534,4.536,4.534h9.07c2.504,0,4.535-2.029,4.535-4.534
	C57.251,375.735,55.22,373.704,52.716,373.704z"/>
<circle fill="#0A0000" stroke="#000000" stroke-width="0.2835" stroke-miterlimit="10" cx="46.279" cy="71.842" r="8.646"/>
<circle fill="#2CCAF4" cx="135.66" cy="71.845" r="4.394"/>
<circle fill="#0A0000" stroke="#000000" stroke-width="0.2835" stroke-miterlimit="10" cx="76.073" cy="71.842" r="8.646"/>
<circle fill="#0A0000" stroke="#000000" stroke-width="0.2835" stroke-miterlimit="10" cx="105.866" cy="71.842" r="8.646"/>
<circle fill="#0A0000" stroke="#000000" stroke-width="0.2835" stroke-miterlimit="10" cx="46.279" cy="125.731" r="8.646"/>
<circle fill="#2CCAF4" cx="135.66" cy="125.734" r="4.394"/>
<circle fill="#0A0000" stroke="#000000" stroke-width="0.2835" stroke-miterlimit="10" cx="76.073" cy="125.731" r="8.646"/>
<circle fill="#0A0000" stroke="#000000" stroke-width="0.2835" stroke-miterlimit="10" cx="105.866" cy="125.731" r="8.646"/>
<circle fill="#0A0000" stroke="#000000" stroke-width="0.2835" stroke-miterlimit="10" cx="46.279" cy="187.38" r="8.646"/>
<circle fill="#2CCAF4" cx="46.309" cy="161.383" r="4.394"/>
<circle fill="#2CCAF4" cx="76.072" cy="161.383" r="4.394"/>
<circle fill="#2CCAF4" cx="105.866" cy="161.383" r="4.394"/>
<circle fill="#2CCAF4" cx="135.66" cy="161.383" r="4.394"/>
<circle fill="#0A0000" stroke="#000000" stroke-width="0.2835" stroke-miterlimit="10" cx="76.073" cy="187.38" r="8.646"/>
<circle fill="#0A0000" stroke="#000000" stroke-width="0.2835" stroke-miterlimit="10" cx="105.866" cy="187.38" r="8.646"/>
<circle fill="#0A0000" stroke="#000000" stroke-width="0.2835" stroke-miterlimit="10" cx="135.66" cy="187.38" r="8.646"/>
<circle fill="#0A0000" stroke="#000000" stroke-width="0.2835" stroke-miterlimit="10" cx="46.279" cy="241.269" r="8.646"/>
<circle fill="#2CCAF4" cx="46.309" cy="215.272" r="4.394"/>
<circle fill="#2CCAF4" cx="76.072" cy="215.272" r="4.394"/>
<circle fill="#2CCAF4" cx="105.866" cy="215.272" r="4.394"/>
<circle fill="#2CCAF4" cx="135.66" cy="215.272" r="4.394"/>
<circle fill="#0A0000" stroke="#000000" stroke-width="0.2835" stroke-miterlimit="10" cx="76.073" cy="241.269" r="8.646"/>
<circle fill="#0A0000" stroke="#000000" stroke-width="0.2835" stroke-miterlimit="10" cx="105.866" cy="241.269" r="8.646"/>
<circle fill="#0A0000" stroke="#000000" stroke-width="0.2835" stroke-miterlimit="10" cx="135.66" cy="241.269" r="8.646"/>
<circle fill="#0A0000" stroke="#000000" stroke-width="0.2835" stroke-miterlimit="10" cx="46.309" cy="339.678" r="7.37"/>
<circle fill="#0A0000" stroke="#000000" stroke-width="0.2835" stroke-miterlimit="10" cx="76.072" cy="339.678" r="7.37"/>
<circle fill="#0A0000" stroke="#000000" stroke-width="0.2835" stroke-miterlimit="10" cx="105.866" cy="339.678" r="7.37"/>
<circle fill="#0A0000" stroke="#000000" stroke-width="0.2835" stroke-miterlimit="10" cx="135.66" cy="339.678" r="7.37"/>
<g>
	<path fill="#80D4F9" d="M37.516,48.58h1.33l-2.088,6.121h-1.207l-2.07-6.121h1.365l1.329,4.646L37.516,48.58z"/>
	<path fill="#80D4F9" d="M40.865,48.393h0.985L39.468,54.7H38.49L40.865,48.393z"/>
	<path fill="#80D4F9" d="M46.683,54.156c-0.462,0.477-1.131,0.715-2.006,0.715c-0.874,0-1.543-0.238-2.005-0.715
		c-0.621-0.584-0.933-1.426-0.933-2.523c0-1.12,0.312-1.963,0.933-2.524c0.462-0.477,1.131-0.714,2.005-0.714
		c0.875,0,1.544,0.237,2.006,0.714c0.617,0.562,0.926,1.404,0.926,2.524C47.608,52.731,47.3,53.572,46.683,54.156z M45.883,53.226
		c0.298-0.374,0.447-0.905,0.447-1.595c0-0.688-0.149-1.217-0.447-1.593c-0.297-0.375-0.699-0.562-1.206-0.562
		s-0.911,0.188-1.212,0.562c-0.303,0.374-0.453,0.904-0.453,1.595c0,0.689,0.15,1.222,0.453,1.595
		c0.301,0.374,0.705,0.562,1.212,0.562S45.586,53.6,45.883,53.226z"/>
	<path fill="#80D4F9" d="M49.169,49.219c0.493-0.505,1.12-0.757,1.882-0.757c1.019,0,1.764,0.339,2.234,1.014
		c0.26,0.379,0.398,0.76,0.419,1.143h-1.278c-0.082-0.293-0.188-0.516-0.314-0.665c-0.227-0.267-0.562-0.397-1.012-0.397
		c-0.456,0-0.815,0.188-1.078,0.562c-0.264,0.375-0.395,0.905-0.395,1.592s0.139,1.201,0.416,1.542
		c0.275,0.343,0.63,0.514,1.059,0.514c0.438,0,0.772-0.146,1.002-0.439c0.128-0.158,0.233-0.396,0.317-0.71h1.271
		c-0.107,0.667-0.389,1.21-0.84,1.628s-1.027,0.627-1.729,0.627c-0.871,0-1.558-0.283-2.056-0.848
		c-0.498-0.566-0.748-1.345-0.748-2.333C48.318,50.621,48.602,49.798,49.169,49.219z"/>
	<path fill="#80D4F9" d="M59.172,48.58v1.084h-1.83v5.037h-1.287v-5.037h-1.84V48.58H59.172z"/>
</g>
<g>
	<path fill="#80D4F9" d="M72.107,48.58h1.328l-2.086,6.121h-1.209l-2.07-6.121h1.367l1.328,4.646L72.107,48.58z"/>
	<path fill="#80D4F9" d="M78.724,49.664h-3.239v1.299h2.976v1.062h-2.976V53.6h3.391v1.102h-4.641V48.58h4.489V49.664z"/>
	<path fill="#80D4F9" d="M79.869,48.58h1.277v5.021h3.059v1.102h-4.336V48.58z"/>
</g>
<g>
	<path fill="#80D4F9" d="M73.922,29.092c0.188,0.261,0.281,0.572,0.281,0.936c0,0.374-0.097,0.675-0.283,0.901
		c-0.105,0.127-0.264,0.243-0.467,0.349c0.312,0.114,0.548,0.293,0.705,0.54c0.158,0.247,0.238,0.545,0.238,0.896
		c0,0.363-0.092,0.688-0.271,0.977c-0.115,0.19-0.262,0.353-0.435,0.481c-0.194,0.148-0.427,0.252-0.69,0.308
		c-0.267,0.056-0.555,0.083-0.864,0.083h-2.758v-6.121h2.958C73.082,28.451,73.611,28.668,73.922,29.092z M70.599,29.503v1.351
		h1.487c0.266,0,0.48-0.05,0.646-0.15c0.166-0.102,0.249-0.28,0.249-0.538c0-0.285-0.107-0.474-0.329-0.563
		c-0.188-0.063-0.431-0.097-0.724-0.097L70.599,29.503L70.599,29.503z M70.599,31.865v1.632h1.486c0.265,0,0.472-0.036,0.62-0.107
		c0.268-0.134,0.4-0.389,0.4-0.765c0-0.317-0.131-0.537-0.391-0.655c-0.146-0.067-0.352-0.102-0.611-0.104L70.599,31.865
		L70.599,31.865z"/>
	<path fill="#80D4F9" d="M80.024,29.524h-3.239v1.3h2.976v1.062h-2.976v1.573h3.391v1.102h-4.641V28.44h4.489V29.524z"/>
	<path fill="#80D4F9" d="M82.92,28.44h1.447l2.166,6.121h-1.389l-0.402-1.258h-2.256l-0.415,1.258h-1.338L82.92,28.44z
		 M82.836,32.247h1.566l-0.771-2.408L82.836,32.247z"/>
	<path fill="#80D4F9" d="M91.131,28.44v1.084h-1.83v5.037h-1.287v-5.037h-1.84V28.44H91.131z"/>
	<path fill="#80D4F9" d="M92.801,32.671c0.039,0.279,0.117,0.488,0.23,0.627c0.215,0.252,0.576,0.379,1.092,0.379
		c0.309,0,0.559-0.033,0.75-0.101c0.363-0.127,0.547-0.364,0.547-0.71c0-0.202-0.088-0.358-0.27-0.47
		c-0.178-0.107-0.461-0.203-0.85-0.286l-0.662-0.146c-0.651-0.145-1.1-0.3-1.342-0.469c-0.413-0.282-0.619-0.725-0.619-1.325
		c0-0.548,0.201-1.003,0.604-1.365c0.402-0.363,0.996-0.544,1.777-0.544c0.653,0,1.21,0.171,1.671,0.513
		c0.462,0.343,0.702,0.838,0.728,1.488h-1.229c-0.021-0.368-0.187-0.63-0.493-0.785c-0.205-0.103-0.459-0.152-0.762-0.152
		c-0.338,0-0.605,0.065-0.81,0.198s-0.304,0.317-0.304,0.557c0,0.219,0.101,0.382,0.297,0.489c0.131,0.072,0.399,0.156,0.814,0.253
		l1.073,0.254c0.472,0.11,0.823,0.259,1.059,0.443c0.364,0.288,0.548,0.705,0.548,1.25c0,0.56-0.217,1.022-0.646,1.394
		c-0.435,0.37-1.043,0.554-1.832,0.554c-0.808,0-1.439-0.182-1.902-0.546c-0.461-0.363-0.689-0.863-0.689-1.501L92.801,32.671
		L92.801,32.671L92.801,32.671z"/>
	<path fill="#80D4F9" d="M101.998,28.44v1.084h-1.832v5.037h-1.287v-5.037H97.04V28.44H101.998z"/>
	<path fill="#80D4F9" d="M107.271,29.524h-3.239v1.3h2.976v1.062h-2.976v1.573h3.39v1.102h-4.64V28.44h4.489V29.524z"/>
	<path fill="#80D4F9" d="M112.525,31.911c-0.355,0.299-0.869,0.448-1.535,0.448h-1.271v2.201h-1.271V28.44h2.631
		c0.604,0,1.088,0.158,1.447,0.475c0.359,0.314,0.54,0.805,0.54,1.466C113.063,31.101,112.885,31.612,112.525,31.911z
		 M111.55,29.706c-0.162-0.137-0.39-0.204-0.681-0.204h-1.152v1.803h1.152c0.291,0,0.519-0.073,0.681-0.221
		c0.161-0.146,0.243-0.379,0.243-0.696C111.793,30.069,111.711,29.842,111.55,29.706z"/>
</g>
<g>
	<path fill="#80D4F9" d="M81.43,145.153c-0.097-0.418-0.334-0.71-0.71-0.876c-0.21-0.091-0.444-0.137-0.702-0.137
		c-0.492,0-0.896,0.187-1.215,0.558c-0.316,0.372-0.477,0.931-0.477,1.677c0,0.751,0.174,1.283,0.517,1.597
		c0.343,0.312,0.731,0.468,1.171,0.468c0.43,0,0.781-0.123,1.055-0.37c0.273-0.246,0.443-0.568,0.507-0.968h-1.416v-1.021h2.552
		v3.285h-0.85l-0.129-0.765c-0.246,0.29-0.467,0.494-0.664,0.611c-0.338,0.207-0.753,0.311-1.246,0.311
		c-0.811,0-1.475-0.28-1.992-0.842c-0.538-0.563-0.811-1.336-0.811-2.314c0-0.99,0.273-1.785,0.818-2.383s1.267-0.896,2.164-0.896
		c0.775,0,1.4,0.197,1.874,0.593c0.472,0.396,0.741,0.886,0.812,1.477H81.43V145.153z"/>
	<path fill="#80D4F9" d="M85.68,143.242h1.447l2.165,6.12h-1.389l-0.401-1.258h-2.254l-0.416,1.258h-1.34L85.68,143.242z
		 M85.596,147.05h1.567l-0.773-2.407L85.596,147.05z"/>
	<path fill="#80D4F9" d="M93.891,143.242v1.084H92.06v5.036h-1.287v-5.036h-1.839v-1.084H93.891z"/>
	<path fill="#80D4F9" d="M99.164,144.326h-3.238v1.299h2.973v1.062h-2.973v1.574h3.388v1.101h-4.638v-6.12h4.488V144.326z"/>
	<path fill="#80D4F9" d="M101.231,147.474c0.04,0.278,0.118,0.487,0.233,0.627c0.212,0.252,0.575,0.378,1.09,0.378
		c0.308,0,0.559-0.033,0.75-0.101c0.365-0.127,0.547-0.363,0.547-0.71c0-0.202-0.089-0.357-0.268-0.469
		c-0.181-0.108-0.462-0.203-0.852-0.286l-0.663-0.146c-0.649-0.145-1.099-0.3-1.342-0.47c-0.413-0.281-0.619-0.724-0.619-1.324
		c0-0.548,0.202-1.003,0.605-1.366c0.401-0.362,0.996-0.544,1.776-0.544c0.652,0,1.209,0.171,1.67,0.514
		c0.463,0.342,0.703,0.838,0.728,1.487h-1.229c-0.021-0.368-0.187-0.629-0.492-0.785c-0.203-0.102-0.457-0.152-0.763-0.152
		c-0.338,0-0.605,0.065-0.81,0.199c-0.201,0.133-0.303,0.317-0.303,0.556c0,0.22,0.1,0.383,0.299,0.49
		c0.128,0.071,0.396,0.155,0.812,0.253l1.073,0.253c0.472,0.11,0.824,0.26,1.059,0.443c0.365,0.288,0.549,0.705,0.549,1.25
		c0,0.56-0.217,1.023-0.647,1.394c-0.432,0.37-1.043,0.555-1.832,0.555c-0.806,0-1.439-0.183-1.901-0.546
		c-0.461-0.364-0.69-0.864-0.69-1.501h1.221V147.474L101.231,147.474z"/>
</g>
<g>
	<path fill="#80D4F9" d="M86.734,261.408h1.84v6.121h-1.189v-4.14c0-0.119,0.001-0.286,0.004-0.501
		c0.002-0.214,0.004-0.38,0.004-0.496l-1.16,5.137h-1.24l-1.152-5.137c0,0.116,0.002,0.282,0.004,0.496
		c0.004,0.215,0.005,0.382,0.005,0.501v4.14h-1.19v-6.121h1.859l1.114,4.812L86.734,261.408z"/>
	<path fill="#80D4F9" d="M90.924,267.531h-1.271v-6.121h1.271V267.531z"/>
	<path fill="#80D4F9" d="M95.707,261.543c0.43,0.142,0.775,0.398,1.043,0.775c0.213,0.304,0.356,0.634,0.436,0.987
		c0.079,0.353,0.117,0.69,0.117,1.014c0,0.813-0.164,1.503-0.49,2.067c-0.441,0.762-1.128,1.143-2.053,1.143h-2.639v-6.121h2.639
		C95.139,261.414,95.455,261.46,95.707,261.543z M93.361,262.473v3.994h1.184c0.604,0,1.023-0.297,1.264-0.895
		c0.131-0.326,0.196-0.716,0.196-1.167c0-0.623-0.1-1.101-0.294-1.435c-0.195-0.333-0.584-0.5-1.166-0.5L93.361,262.473
		L93.361,262.473z"/>
	<path fill="#80D4F9" d="M99.428,267.531h-1.271v-6.121h1.271V267.531z"/>
</g>
<g>
	<path fill="#80D4F9" d="M99.132,50.49c-0.097-0.419-0.333-0.711-0.71-0.877c-0.211-0.091-0.444-0.137-0.701-0.137
		c-0.494,0-0.898,0.187-1.215,0.559c-0.317,0.372-0.478,0.93-0.478,1.676c0,0.751,0.171,1.283,0.517,1.597
		c0.344,0.312,0.731,0.468,1.171,0.468c0.429,0,0.78-0.123,1.055-0.37c0.274-0.245,0.442-0.568,0.507-0.968h-1.416v-1.021h2.549
		v3.285h-0.847l-0.128-0.765c-0.247,0.29-0.469,0.494-0.665,0.611c-0.338,0.207-0.753,0.311-1.245,0.311
		c-0.812,0-1.477-0.28-1.994-0.842c-0.539-0.563-0.809-1.336-0.809-2.314c0-0.99,0.271-1.785,0.817-2.383s1.267-0.896,2.163-0.896
		c0.776,0,1.401,0.197,1.875,0.593c0.473,0.396,0.74,0.886,0.812,1.477h-1.258V50.49L99.132,50.49z"/>
	<path fill="#80D4F9" d="M103.382,48.58h1.447l2.165,6.121h-1.389l-0.402-1.259h-2.256l-0.414,1.259h-1.338L103.382,48.58z
		 M103.297,52.387h1.566l-0.771-2.408L103.297,52.387z"/>
	<path fill="#80D4F9" d="M111.593,48.58v1.084h-1.831v5.037h-1.287v-5.037h-1.84V48.58H111.593z"/>
	<path fill="#80D4F9" d="M116.866,49.664h-3.237v1.299h2.974v1.062h-2.974V53.6h3.389v1.102h-4.639V48.58h4.487V49.664z"/>
</g>
<g>
	<path fill="#80D4F9" d="M133.887,50.548v-0.806c0.373-0.018,0.633-0.042,0.783-0.075c0.234-0.052,0.43-0.157,0.579-0.314
		c0.103-0.107,0.18-0.252,0.229-0.433c0.031-0.107,0.047-0.188,0.047-0.24h0.988v6.021h-1.213v-4.152L133.887,50.548L133.887,50.548
		z"/>
</g>
<g>
	<path fill="#80D4F9" d="M133.841,105.023c0.169-0.4,0.565-0.826,1.196-1.273c0.545-0.392,0.896-0.67,1.059-0.839
		c0.246-0.264,0.369-0.552,0.369-0.864c0-0.254-0.07-0.466-0.211-0.635c-0.144-0.169-0.344-0.253-0.607-0.253
		c-0.357,0-0.604,0.134-0.732,0.402c-0.074,0.154-0.119,0.4-0.135,0.738h-1.148c0.02-0.512,0.111-0.926,0.278-1.241
		c0.314-0.602,0.877-0.9,1.684-0.9c0.638,0,1.146,0.176,1.521,0.528c0.377,0.354,0.565,0.819,0.565,1.4
		c0,0.446-0.133,0.843-0.399,1.188c-0.175,0.229-0.462,0.486-0.859,0.769l-0.475,0.336c-0.298,0.21-0.5,0.363-0.608,0.457
		c-0.109,0.095-0.201,0.203-0.276,0.328h2.628v1.042h-4.123C133.574,105.775,133.666,105.38,133.841,105.023z"/>
</g>
<g>
	<path fill="#80D4F9" d="M37.516,100.086h1.33l-2.088,6.121h-1.207l-2.07-6.121h1.365l1.329,4.646L37.516,100.086z"/>
	<path fill="#80D4F9" d="M40.865,99.899h0.985l-2.383,6.308H38.49L40.865,99.899z"/>
	<path fill="#80D4F9" d="M46.683,105.662c-0.462,0.477-1.131,0.714-2.006,0.714c-0.874,0-1.543-0.237-2.005-0.714
		c-0.621-0.584-0.933-1.427-0.933-2.523c0-1.121,0.312-1.964,0.933-2.525c0.462-0.476,1.131-0.714,2.005-0.714
		c0.875,0,1.544,0.238,2.006,0.714c0.617,0.562,0.926,1.404,0.926,2.525C47.608,104.237,47.3,105.078,46.683,105.662z
		 M45.883,104.732c0.298-0.374,0.447-0.904,0.447-1.594c0-0.688-0.149-1.218-0.447-1.594c-0.297-0.375-0.699-0.562-1.206-0.562
		s-0.911,0.188-1.212,0.562c-0.303,0.374-0.453,0.905-0.453,1.596c0,0.688,0.15,1.221,0.453,1.594
		c0.301,0.374,0.705,0.562,1.212,0.562S45.586,105.106,45.883,104.732z"/>
	<path fill="#80D4F9" d="M49.169,100.725c0.493-0.504,1.12-0.756,1.882-0.756c1.019,0,1.764,0.338,2.234,1.013
		c0.26,0.379,0.398,0.761,0.419,1.143h-1.278c-0.082-0.293-0.188-0.516-0.314-0.665c-0.227-0.267-0.562-0.397-1.012-0.397
		c-0.456,0-0.815,0.188-1.078,0.562c-0.264,0.375-0.395,0.905-0.395,1.592s0.139,1.201,0.416,1.542
		c0.275,0.343,0.63,0.514,1.059,0.514c0.438,0,0.772-0.146,1.002-0.439c0.128-0.158,0.233-0.396,0.317-0.71h1.271
		c-0.107,0.667-0.389,1.21-0.84,1.628s-1.027,0.627-1.729,0.627c-0.871,0-1.558-0.282-2.056-0.848
		c-0.498-0.566-0.748-1.345-0.748-2.333C48.318,102.127,48.602,101.304,49.169,100.725z"/>
	<path fill="#80D4F9" d="M59.172,100.086v1.084h-1.83v5.037h-1.287v-5.037h-1.84v-1.084H59.172z"/>
</g>
<g>
	<path fill="#80D4F9" d="M72.107,100.086h1.328l-2.086,6.121h-1.209l-2.07-6.121h1.367l1.328,4.646L72.107,100.086z"/>
	<path fill="#80D4F9" d="M78.724,101.17h-3.239v1.3h2.976v1.062h-2.976v1.573h3.391v1.102h-4.641v-6.121h4.489V101.17z"/>
	<path fill="#80D4F9" d="M79.869,100.086h1.277v5.021h3.059v1.102h-4.336V100.086z"/>
</g>
<g>
	<path fill="#80D4F9" d="M99.132,101.996c-0.097-0.418-0.333-0.71-0.71-0.876c-0.211-0.092-0.444-0.138-0.701-0.138
		c-0.494,0-0.898,0.187-1.215,0.559c-0.317,0.372-0.478,0.931-0.478,1.676c0,0.752,0.171,1.283,0.517,1.597
		c0.344,0.312,0.731,0.469,1.171,0.469c0.429,0,0.78-0.123,1.055-0.37c0.274-0.246,0.442-0.569,0.507-0.969h-1.416v-1.021h2.549
		v3.285h-0.847l-0.128-0.765c-0.247,0.29-0.469,0.494-0.665,0.612c-0.338,0.207-0.753,0.311-1.245,0.311
		c-0.812,0-1.477-0.281-1.994-0.843c-0.539-0.563-0.809-1.336-0.809-2.314c0-0.989,0.271-1.785,0.817-2.382
		c0.546-0.599,1.267-0.896,2.163-0.896c0.776,0,1.401,0.196,1.875,0.592c0.473,0.396,0.74,0.887,0.812,1.477h-1.258V101.996
		L99.132,101.996z"/>
	<path fill="#80D4F9" d="M103.382,100.086h1.447l2.165,6.121h-1.389l-0.402-1.258h-2.256l-0.414,1.258h-1.338L103.382,100.086z
		 M103.297,103.893h1.566l-0.771-2.408L103.297,103.893z"/>
	<path fill="#80D4F9" d="M111.593,100.086v1.084h-1.831v5.037h-1.287v-5.037h-1.84v-1.084H111.593z"/>
	<path fill="#80D4F9" d="M116.866,101.17h-3.237v1.3h2.974v1.062h-2.974v1.573h3.389v1.102h-4.639v-6.121h4.487V101.17z"/>
</g>
<g>
	<path fill="#80D4F9" d="M43.871,324.24H42.6v-6.121h1.271V324.24z"/>
	<path fill="#80D4F9" d="M45.047,318.119h1.34l2.43,4.27v-4.27h1.191v6.121H48.73l-2.492-4.343v4.343h-1.189L45.047,318.119
		L45.047,318.119z"/>
</g>
<g>
	<path fill="#80D4F9" d="M65.576,318.119h1.328l-2.087,6.121h-1.208l-2.068-6.121h1.364l1.329,4.646L65.576,318.119z"/>
	<path fill="#80D4F9" d="M72.379,323.697c-0.463,0.478-1.131,0.714-2.006,0.714s-1.543-0.236-2.006-0.714
		c-0.619-0.584-0.932-1.426-0.932-2.522c0-1.121,0.312-1.963,0.932-2.525c0.463-0.476,1.131-0.714,2.006-0.714
		s1.543,0.238,2.006,0.714c0.617,0.562,0.926,1.404,0.926,2.525C73.305,322.272,72.996,323.114,72.379,323.697z M71.58,322.767
		c0.297-0.373,0.443-0.905,0.443-1.594s-0.146-1.22-0.443-1.595c-0.301-0.375-0.7-0.562-1.207-0.562
		c-0.506,0-0.91,0.187-1.213,0.561c-0.303,0.373-0.452,0.905-0.452,1.597c0,0.688,0.149,1.221,0.452,1.594
		c0.303,0.374,0.705,0.561,1.213,0.561C70.88,323.326,71.281,323.141,71.58,322.767z"/>
	<path fill="#80D4F9" d="M74.281,318.119h1.278v5.021h3.056v1.101h-4.334V318.119L74.281,318.119z"/>
	<path fill="#80D4F9" d="M80.06,318.76c0.493-0.504,1.12-0.756,1.882-0.756c1.021,0,1.766,0.338,2.234,1.014
		c0.26,0.379,0.4,0.76,0.419,1.142h-1.278c-0.082-0.293-0.187-0.515-0.312-0.664c-0.229-0.266-0.564-0.396-1.014-0.396
		c-0.455,0-0.813,0.188-1.077,0.562c-0.265,0.375-0.396,0.905-0.396,1.594c0,0.687,0.139,1.199,0.416,1.543
		c0.277,0.342,0.63,0.513,1.059,0.513c0.438,0,0.772-0.146,1.003-0.44c0.129-0.155,0.232-0.395,0.316-0.71h1.271
		c-0.109,0.667-0.391,1.21-0.841,1.628s-1.026,0.627-1.73,0.627c-0.871,0-1.557-0.28-2.054-0.847
		c-0.498-0.565-0.748-1.346-0.748-2.334C79.209,320.161,79.492,319.34,80.06,318.76z"/>
	<path fill="#80D4F9" d="M87.366,318.119h1.447l2.165,6.121h-1.387l-0.404-1.259h-2.254l-0.414,1.259h-1.338L87.366,318.119z
		 M87.281,321.928h1.568l-0.773-2.408L87.281,321.928z"/>
</g>
<g>
	<path fill="#80D4F9" d="M103.219,322.946h-0.682v1.296h-1.158v-1.296h-2.383v-1.034l2.213-3.651h1.328v3.762h0.682V322.946z
		 M101.379,322.02v-2.594l-1.502,2.594H101.379z"/>
	<path fill="#80D4F9" d="M107.457,318.989c0.309,0.54,0.463,1.309,0.463,2.301c0,0.993-0.154,1.761-0.463,2.298
		c-0.311,0.535-0.849,0.806-1.613,0.806c-0.768,0-1.305-0.271-1.613-0.806c-0.308-0.537-0.463-1.305-0.463-2.298
		c0-0.992,0.154-1.761,0.463-2.301c0.311-0.54,0.848-0.81,1.613-0.81S107.148,318.448,107.457,318.989z M105.146,322.878
		c0.113,0.365,0.346,0.55,0.697,0.55c0.351,0,0.582-0.185,0.691-0.55c0.107-0.367,0.162-0.896,0.162-1.59
		c0-0.726-0.055-1.263-0.162-1.609c-0.109-0.35-0.342-0.523-0.691-0.523s-0.584,0.175-0.697,0.523
		c-0.114,0.349-0.171,0.886-0.171,1.609C104.976,321.981,105.032,322.51,105.146,322.878z"/>
	<path fill="#80D4F9" d="M112.678,322.946h-0.681v1.296h-1.159v-1.296h-2.383v-1.034l2.213-3.651h1.329v3.762h0.681V322.946z
		 M110.838,322.02v-2.594l-1.502,2.594H110.838z"/>
</g>
<g>
	<path fill="#80D4F9" d="M128.727,322.352c0.04,0.279,0.117,0.488,0.233,0.627c0.212,0.252,0.575,0.378,1.09,0.378
		c0.308,0,0.558-0.033,0.75-0.1c0.364-0.127,0.547-0.364,0.547-0.71c0-0.202-0.089-0.358-0.268-0.472
		c-0.181-0.105-0.462-0.203-0.853-0.284l-0.662-0.146c-0.648-0.144-1.099-0.3-1.342-0.469c-0.412-0.282-0.619-0.726-0.619-1.325
		c0-0.548,0.202-1.003,0.605-1.365c0.401-0.363,0.996-0.544,1.776-0.544c0.653,0,1.21,0.171,1.671,0.513
		c0.463,0.344,0.702,0.84,0.727,1.488h-1.229c-0.021-0.368-0.188-0.63-0.493-0.785c-0.204-0.102-0.459-0.151-0.763-0.151
		c-0.338,0-0.605,0.064-0.809,0.197c-0.202,0.135-0.304,0.318-0.304,0.559c0,0.219,0.101,0.382,0.299,0.49
		c0.128,0.069,0.397,0.154,0.812,0.253l1.074,0.253c0.471,0.109,0.823,0.259,1.059,0.442c0.364,0.288,0.547,0.705,0.547,1.25
		c0,0.562-0.217,1.023-0.646,1.396c-0.432,0.369-1.043,0.554-1.832,0.554c-0.806,0-1.439-0.182-1.901-0.546s-0.69-0.864-0.69-1.501
		L128.727,322.352L128.727,322.352z"/>
	<path fill="#80D4F9" d="M137.924,318.119v1.084h-1.831v5.037h-1.287v-5.037h-1.839v-1.084H137.924z"/>
	<path fill="#80D4F9" d="M142.258,318.254c0.43,0.142,0.775,0.398,1.043,0.775c0.213,0.306,0.356,0.634,0.436,0.987
		c0.079,0.353,0.117,0.692,0.117,1.014c0,0.813-0.164,1.503-0.49,2.067c-0.441,0.762-1.128,1.143-2.053,1.143h-2.639v-6.121h2.639
		C141.689,318.127,142.006,318.171,142.258,318.254z M139.912,319.184v3.994h1.182c0.604,0,1.025-0.297,1.264-0.895
		c0.131-0.324,0.196-0.716,0.196-1.167c0-0.623-0.098-1.101-0.294-1.435c-0.195-0.333-0.584-0.5-1.166-0.5L139.912,319.184
		L139.912,319.184z"/>
</g>
<g>
	<path fill="#80D4F9" stroke="#80D4F9" stroke-width="0.2835" stroke-miterlimit="10" d="M141.163,270.156
		c0.077-0.433,0.126-0.876,0.126-1.33c0-4.101-3.336-7.438-7.438-7.438c-2.979,0-5.549,1.767-6.731,4.304
		c-3.334,0.735-5.84,3.708-5.84,7.259c0,4.104,3.335,7.438,7.438,7.438c0.668,0,1.312-0.098,1.929-0.264
		c1.299,2.179,3.671,3.645,6.385,3.645c4.103,0,7.438-3.334,7.438-7.436C144.469,273.763,143.155,271.491,141.163,270.156z
		 M133.853,263.043c3.189,0,5.785,2.596,5.783,5.782c0,0.187-0.01,0.362-0.026,0.541c-0.805-0.299-1.67-0.471-2.577-0.471
		c-0.668,0-1.312,0.099-1.929,0.264c-1.236-2.072-3.449-3.493-6-3.625C130.148,264.03,131.887,263.043,133.853,263.043z
		 M131.248,276.337c0-0.186,0.011-0.365,0.025-0.543c0.688,0.256,1.425,0.41,2.192,0.449c-0.51,0.732-1.185,1.346-1.968,1.776
		C131.336,277.488,131.248,276.922,131.248,276.337z M133.853,274.612c-0.771,0-1.51-0.156-2.184-0.433
		c0.5-1.241,1.417-2.271,2.579-2.91c0.164,0.533,0.253,1.098,0.253,1.685c0,0.569-0.085,1.118-0.24,1.64
		C134.127,274.601,133.991,274.612,133.853,274.612z M128.068,268.825c0-0.566,0.086-1.115,0.24-1.637
		c0.136-0.011,0.271-0.021,0.409-0.021c2.013,0,3.787,1.035,4.824,2.604c-1.464,0.781-2.633,2.037-3.31,3.562
		C128.916,272.272,128.068,270.647,128.068,268.825z M135.799,270.686c0.396-0.086,0.809-0.136,1.23-0.136
		c0.773,0,1.512,0.153,2.186,0.432c-0.582,1.444-1.73,2.604-3.171,3.194c0.065-0.399,0.108-0.809,0.108-1.227
		C136.154,272.16,136.027,271.401,135.799,270.686z M128.718,278.738c-3.188,0-5.784-2.596-5.784-5.784
		c0-2.415,1.486-4.483,3.592-5.352c-0.064,0.399-0.106,0.807-0.106,1.225c0,2.573,1.312,4.845,3.305,6.182
		c-0.079,0.432-0.126,0.875-0.126,1.328c0,0.792,0.126,1.551,0.354,2.268C129.553,278.688,129.142,278.738,128.718,278.738z
		 M137.031,282.118c-2.014,0-3.789-1.038-4.824-2.604c1.42-0.757,2.561-1.966,3.244-3.429c2.33-0.515,4.253-2.12,5.199-4.26
		c1.317,1.062,2.165,2.688,2.165,4.508C142.816,279.525,140.222,282.118,137.031,282.118z"/>
	
		<rect x="125.438" y="281.263" fill="#80D4F9" stroke="#80D4F9" stroke-width="0.2835" stroke-miterlimit="10" width="1.653" height="11.795"/>
	
		<rect x="129.93" y="285.197" fill="#80D4F9" stroke="#80D4F9" stroke-width="0.2835" stroke-miterlimit="10" width="1.65" height="11.793"/>
	
		<rect x="135.004" y="287.159" fill="#80D4F9" stroke="#80D4F9" stroke-width="0.2835" stroke-miterlimit="10" width="1.651" height="11.795"/>
</g>
<polygon fill="#80D4F9" points="110.163,146.349 110.163,147.349 150.092,147.349 150.092,254.773 31.849,254.773 31.849,147.349 
	71.839,147.349 71.839,146.349 30.8,146.349 30.8,255.773 151.141,255.773 151.141,146.349 "/>
<polygon fill="#80D4F9" points="106.576,311.683 105.157,311.683 105.157,299.546 90.623,289.551 91.426,288.384 106.576,298.8 "/>
<circle cx="91.024" cy="288.968" r="10.205"/>
</svg>
