<?xml version="1.0" encoding="utf-8"?>
<!-- Generator: Adobe Illustrator 16.0.0, SVG Export Plug-In . SVG Version: 6.00 Build 0)  -->
<!DOCTYPE svg PUBLIC "-//W3C//DTD SVG 1.1//EN" "http://www.w3.org/Graphics/SVG/1.1/DTD/svg11.dtd">
<svg version="1.1" id="Layer_1" xmlns="http://www.w3.org/2000/svg" xmlns:xlink="http://www.w3.org/1999/xlink" x="0px" y="0px"
	 width="201.6px" height="364.252px" viewBox="0 0 201.6 364.252" enable-background="new 0 0 201.6 364.252" xml:space="preserve">
<rect fill="#B37900" width="201.6" height="364.252"/>
<path fill="#0022AF" d="M79.752,74.43h-8.504c-7.795,0-14.173,6.378-14.173,14.173v207.479v2.285v57.328
	c0,1.487,1.206,2.693,2.693,2.693c1.487,0,2.693-1.206,2.693-2.693v-27.278c0.002,1.643,1.333,2.972,2.976,2.972
	c0.516,0,0.994-0.144,1.417-0.374v1.827c0,3.247,2.632,5.88,5.88,5.88v11.061c0,1.623,1.316,2.939,2.939,2.939
	s2.94-1.316,2.94-2.939v-15.454c0-0.215-0.026-0.424-0.07-0.625c0.041-0.282,0.07-0.568,0.07-0.861v-9.624
	c0,1.958,1.587,3.546,3.545,3.546c1.958,0,3.546-1.588,3.546-3.546v-6.273c0,2.271,1.84,4.11,4.11,4.11s4.11-1.84,4.11-4.11v-18.577
	v-12.42V88.603C93.925,80.808,87.547,74.43,79.752,74.43z"/>
<path fill="#07FF35" d="M29.152,74.43h-8.504c-7.795,0-14.173,6.378-14.173,14.173v201.812v7.952V314.5v21.528v7.915
	c0,2.271,1.84,4.111,4.111,4.111s4.111-1.841,4.111-4.111v-13.236c0.048,0.003,0.093,0.015,0.142,0.015
	c1.644,0,2.977-1.333,2.977-2.977v-4.466c0,0.98,0.795,1.775,1.776,1.775c0.98,0,1.776-0.795,1.776-1.775v-3.238
	c0.692,0.219,1.424,0.348,2.189,0.348c1.75,0,3.355-0.617,4.613-1.644v1.954c0,1.485,1.204,2.689,2.689,2.689
	s2.689-1.204,2.689-2.689v19.158c0,1.214,0.983,2.197,2.197,2.197s2.197-0.983,2.197-2.197v-17.161c0,1.487,1.206,2.692,2.693,2.692
	c1.487,0,2.692-1.205,2.692-2.692v-24.329v-3.953V88.603C43.326,80.808,36.948,74.43,29.152,74.43z"/>
<path fill="#FF0324" d="M130.35,74.43h-8.505c-7.795,0-14.173,6.378-14.173,14.173v192.916c-0.043,0.192-0.07,0.392-0.07,0.598
	v35.877c0,1.506,1.222,2.728,2.729,2.728v22.191c0,2.84,2.302,5.142,5.142,5.142s5.142-2.302,5.142-5.142v-16.429
	c0.365,0.174,0.769,0.279,1.199,0.279c1.547,0,2.801-1.254,2.801-2.801v7.926c0,0.828,0.672,1.5,1.5,1.5s1.5-0.672,1.5-1.5V319.49
	c0,1.969,1.596,3.564,3.564,3.564c1.97,0,3.565-1.596,3.565-3.564v-1.811c0.138,0.015,0.272,0.042,0.414,0.042
	c2.198,0,3.979-1.781,3.979-3.979v12.619c0,1.487,1.206,2.693,2.693,2.693c1.486,0,2.692-1.206,2.692-2.693v-27.994v-28.578V88.603
	C144.523,80.808,138.145,74.43,130.35,74.43z"/>
<circle fill="#99FF99" cx="24.902" cy="184.368" r="7.087"/>
<circle fill="#6699FF" cx="75.5" cy="184.368" r="7.087"/>
<circle fill="#FF6699" cx="126.098" cy="184.368" r="7.086"/>
<path d="M23.634,3.968h-4.536c-2.505,0-4.534,2.029-4.534,4.534c0,2.507,2.029,4.535,4.534,4.535h4.536
	c2.504,0,4.535-2.028,4.535-4.535C28.171,5.999,26.138,3.968,23.634,3.968z"/>
<path d="M103.067,3.968h-4.536c-2.505,0-4.534,2.029-4.534,4.534c0,2.507,2.029,4.535,4.534,4.535h4.536
	c2.504,0,4.535-2.028,4.535-4.535C107.603,5.999,105.571,3.968,103.067,3.968z"/>
<path d="M177.965,360.285h4.535c2.506,0,4.534-2.029,4.534-4.534c0-2.507-2.028-4.535-4.534-4.535h-4.535
	c-2.504,0-4.535,2.028-4.535,4.535C173.428,358.253,175.461,360.285,177.965,360.285z"/>
<path d="M19.099,360.285h4.536c2.505,0,4.534-2.029,4.534-4.534c0-2.507-2.029-4.535-4.534-4.535h-4.536
	c-2.504,0-4.535,2.028-4.535,4.535C14.563,358.253,16.595,360.285,19.099,360.285z"/>
<g>
	<path fill="#0022AF" d="M94.749,77.138l-7.213-7.213l1.497-1.498l2.75,2.75l2.805-2.804l-2.75-2.75l1.497-1.497l7.213,7.213
		l-1.497,1.497l-3.221-3.22l-2.804,2.804l3.22,3.22L94.749,77.138z"/>
	<path fill="#0022AF" d="M96.846,60.615l1.705-1.705l9.766,4.661l-1.635,1.634l-1.959-1.006l-2.656,2.656l0.994,1.971l-1.576,1.577
		L96.846,60.615z"/>
	<path fill="#0022AF" d="M106.524,50.938l1.277,1.277l-2.158,2.158l5.936,5.936l-1.518,1.517l-5.936-5.936l-2.168,2.168
		l-1.278-1.277L106.524,50.938z"/>
</g>
<path d="M98.532,360.285h4.536c2.505,0,4.534-2.029,4.534-4.534c0-2.507-2.029-4.535-4.534-4.535h-4.536
	c-2.504,0-4.535,2.028-4.535,4.535C93.996,358.253,96.028,360.285,98.532,360.285z"/>
<path d="M177.965,13.037h4.535c2.506,0,4.534-2.029,4.534-4.534c0-2.507-2.028-4.535-4.534-4.535h-4.535
	c-2.504,0-4.535,2.028-4.535,4.535C173.428,11.006,175.461,13.037,177.965,13.037z"/>
<circle cx="24.901" cy="222.028" r="13.039"/>
<g>
	<path fill="#FF0324" d="M144.147,73.815c0.375,0.283,0.713,0.438,1.014,0.464c0.547,0.047,1.123-0.232,1.729-0.839
		c0.363-0.363,0.619-0.697,0.768-1.001c0.279-0.58,0.215-1.074-0.193-1.481c-0.238-0.238-0.527-0.317-0.867-0.237
		c-0.338,0.083-0.785,0.304-1.34,0.663l-0.953,0.61c-0.936,0.598-1.648,0.941-2.135,1.028c-0.818,0.154-1.582-0.124-2.289-0.831
		c-0.646-0.646-0.945-1.42-0.896-2.324c0.047-0.903,0.531-1.815,1.453-2.737c0.77-0.769,1.627-1.224,2.574-1.364
		c0.947-0.14,1.816,0.16,2.609,0.9l-1.449,1.448c-0.461-0.407-0.963-0.521-1.506-0.343c-0.361,0.12-0.723,0.359-1.08,0.716
		c-0.398,0.398-0.637,0.794-0.719,1.188c-0.08,0.394,0.02,0.732,0.301,1.012c0.258,0.258,0.566,0.333,0.928,0.226
		c0.236-0.066,0.654-0.286,1.258-0.66l1.564-0.967c0.686-0.424,1.275-0.666,1.771-0.724c0.77-0.091,1.475,0.186,2.117,0.828
		c0.658,0.659,0.951,1.461,0.877,2.405c-0.074,0.946-0.576,1.883-1.506,2.813c-0.949,0.95-1.91,1.482-2.883,1.597
		c-0.975,0.115-1.836-0.203-2.586-0.953L144.147,73.815z"/>
	<path fill="#FF0324" d="M144.733,63.255l1.582-1.581l7.891,2.167l-5.029-5.029l1.406-1.405l7.213,7.213l-1.508,1.507l-8.055-2.182
		l5.119,5.118l-1.406,1.405L144.733,63.255z"/>
	<path fill="#FF0324" d="M154.059,53.931l1.705-1.706l9.766,4.661l-1.635,1.635l-1.959-1.006l-2.656,2.656l0.994,1.971l-1.578,1.577
		L154.059,53.931z"/>
	<path fill="#FF0324" d="M164.042,44.319c0.379-0.151,0.773-0.208,1.18-0.171c0.336,0.03,0.658,0.112,0.969,0.245
		s0.607,0.341,0.893,0.625c0.342,0.343,0.592,0.766,0.75,1.27s0.107,1.024-0.152,1.558c0.467-0.198,0.893-0.244,1.277-0.137
		c0.385,0.108,0.83,0.415,1.334,0.92l0.484,0.484c0.33,0.33,0.566,0.54,0.711,0.63c0.227,0.146,0.455,0.19,0.689,0.133l0.182,0.181
		l-1.664,1.664c-0.205-0.115-0.367-0.21-0.484-0.289c-0.242-0.163-0.471-0.349-0.686-0.558l-0.68-0.66
		c-0.467-0.455-0.854-0.682-1.158-0.683c-0.307,0-0.67,0.209-1.09,0.629l-1.471,1.472l2.828,2.829l-1.473,1.473l-7.213-7.213
		l3.449-3.45C163.219,44.788,163.663,44.471,164.042,44.319z"/>
	<path fill="#FF0324" d="M173.083,37.461l-3.818,3.817l1.533,1.532l3.502-3.503l1.254,1.252l-3.504,3.503l1.855,1.855l3.992-3.993
		l1.297,1.297l-5.467,5.466l-7.213-7.213l5.291-5.29L173.083,37.461z"/>
</g>
<circle cx="24.901" cy="50.317" r="13.039"/>
<circle cx="75.5" cy="222.028" r="13.039"/>
<circle cx="126.098" cy="222.028" r="13.04"/>
<circle cx="126.098" cy="258.451" r="13.04"/>
<circle cx="75.5" cy="258.451" r="13.04"/>
<circle cx="24.901" cy="258.451" r="13.04"/>
<circle cx="24.901" cy="294.876" r="13.04"/>
<circle cx="75.5" cy="294.876" r="13.04"/>
<circle cx="126.098" cy="294.876" r="13.039"/>
<circle cx="176.698" cy="294.876" r="13.039"/>
<circle cx="176.698" cy="258.451" r="13.039"/>
<circle fill="none" stroke="#000000" stroke-width="0.2835" stroke-miterlimit="10" cx="75.5" cy="94.645" r="15.591"/>
<circle fill="none" stroke="#000000" stroke-width="0.2835" stroke-miterlimit="10" cx="126.099" cy="94.645" r="15.59"/>
<circle fill="none" stroke="#000000" stroke-width="0.2835" stroke-miterlimit="10" cx="126.099" cy="151.968" r="15.59"/>
<circle fill="none" stroke="#000000" stroke-width="0.2835" stroke-miterlimit="10" cx="176.697" cy="151.968" r="15.59"/>
<circle fill="none" stroke="#000000" stroke-width="0.2835" stroke-miterlimit="10" cx="75.5" cy="151.968" r="15.59"/>
<circle fill="none" stroke="#000000" stroke-width="0.2835" stroke-miterlimit="10" cx="24.9" cy="151.968" r="15.59"/>
<circle fill="none" stroke="#000000" stroke-width="0.2835" stroke-miterlimit="10" cx="24.901" cy="94.765" r="15.591"/>
<g>
	<path fill="#FFA52F" d="M191.289,85.935c0.119-0.654,0.188-1.328,0.188-2.017c0-6.223-5.063-11.288-11.286-11.288
		c-4.524,0-8.423,2.681-10.224,6.531c-5.059,1.116-8.86,5.628-8.86,11.018c0,6.227,5.064,11.29,11.289,11.29
		c1.014,0,1.991-0.147,2.927-0.399c1.97,3.307,5.572,5.534,9.694,5.534c6.223,0,11.287-5.062,11.287-11.287
		C196.304,91.411,194.31,87.962,191.289,85.935z"/>
	<rect x="167.418" y="102.795" fill="#FFA52F" width="2.509" height="17.903"/>
	<rect x="174.234" y="108.77" fill="#FFA52F" width="2.51" height="17.901"/>
	<rect x="181.938" y="111.748" fill="#FFA52F" width="2.51" height="17.901"/>
</g>
<g>
	<path d="M17.157,20.896h3.067v10.201h-1.986v-6.9c0-0.198,0.002-0.476,0.007-0.834c0.004-0.357,0.007-0.633,0.007-0.827
		l-1.933,8.561h-2.072l-1.919-8.561c0,0.194,0.002,0.469,0.007,0.827c0.004,0.358,0.007,0.636,0.007,0.834v6.9h-1.986V20.896h3.102
		l1.857,8.021L17.157,20.896z"/>
	<path d="M24.141,31.097h-2.118V20.896h2.118V31.097z"/>
	<path d="M32.111,21.118c0.716,0.235,1.295,0.667,1.739,1.294c0.355,0.507,0.598,1.056,0.727,1.647
		c0.129,0.59,0.194,1.153,0.194,1.688c0,1.356-0.272,2.505-0.817,3.446c-0.739,1.269-1.879,1.903-3.421,1.903h-4.398V20.896h4.398
		C31.165,20.906,31.691,20.979,32.111,21.118z"/>
	<path d="M38.314,31.097h-2.118V20.896h2.118V31.097z"/>
</g>
<g>
	<path fill="#07FF35" d="M36.9,68.225l1.482-1.483l2.973,2.972l-0.186-5.759l1.947-1.947l0.007,5.926l7.358,1.135l-1.938,1.938
		l-5.371-0.926l0.01,1.462l2.412,2.413l-1.482,1.483L36.9,68.225z"/>
	<path fill="#07FF35" d="M52.701,66.849l-1.497,1.498l-7.213-7.213l1.497-1.498L52.701,66.849z"/>
	<path fill="#07FF35" d="M48.34,58.291c-0.013-1.174,0.429-2.21,1.327-3.108c1.2-1.201,2.476-1.68,3.826-1.439
		c0.754,0.141,1.367,0.424,1.84,0.852l-1.507,1.507c-0.441-0.25-0.826-0.388-1.151-0.414c-0.582-0.045-1.137,0.196-1.664,0.724
		c-0.537,0.537-0.739,1.182-0.607,1.934s0.603,1.532,1.412,2.341c0.809,0.809,1.578,1.251,2.309,1.327
		c0.73,0.076,1.347-0.138,1.852-0.643c0.516-0.517,0.738-1.084,0.663-1.701c-0.036-0.336-0.19-0.74-0.464-1.21l1.498-1.497
		c0.656,0.915,0.966,1.884,0.928,2.908s-0.472,1.95-1.301,2.78c-1.027,1.026-2.167,1.5-3.42,1.422
		c-1.256-0.081-2.467-0.704-3.631-1.869C48.99,60.946,48.353,59.641,48.34,58.291z"/>
	<path fill="#07FF35" d="M54.16,50.965l1.482-1.482l2.972,2.972l-0.185-5.759l1.947-1.948l0.007,5.926l7.358,1.135l-1.938,1.938
		l-5.371-0.926l0.01,1.462l2.412,2.413l-1.482,1.482L54.16,50.965z"/>
</g>
<g>
	<path d="M172.592,325.857c-0.77,0.794-1.885,1.19-3.342,1.19c-1.459,0-2.572-0.396-3.344-1.19c-1.033-0.973-1.55-2.376-1.55-4.207
		c0-1.869,0.517-3.271,1.55-4.208c0.771-0.794,1.885-1.19,3.344-1.19c1.457,0,2.572,0.396,3.342,1.19
		c1.029,0.937,1.543,2.339,1.543,4.208C174.135,323.481,173.622,324.884,172.592,325.857z"/>
	<path d="M175.762,316.563h2.166v6.265c0,0.701,0.083,1.213,0.248,1.535c0.258,0.572,0.818,0.857,1.684,0.857
		c0.859,0,1.418-0.285,1.675-0.857c0.165-0.322,0.249-0.834,0.249-1.535v-6.265h2.166v6.271c0,1.084-0.168,1.928-0.505,2.532
		c-0.626,1.107-1.821,1.661-3.585,1.661c-1.765,0-2.963-0.554-3.594-1.661c-0.336-0.604-0.504-1.448-0.504-2.532V316.563z"/>
	<path d="M193.41,316.563v1.806h-3.052v8.395h-2.146v-8.395h-3.064v-1.806H193.41z"/>
</g>
<g>
	<path fill="#FFA52F" d="M161.715,179.408c0.715,0.235,1.295,0.667,1.738,1.294c0.355,0.507,0.598,1.056,0.727,1.647
		c0.13,0.59,0.194,1.154,0.194,1.689c0,1.355-0.272,2.505-0.817,3.445c-0.738,1.27-1.879,1.904-3.422,1.904h-4.397v-10.201h4.397
		C160.768,179.196,161.295,179.27,161.715,179.408z"/>
	<path fill="#FFA52F" d="M172.51,179.45c0.375,0.162,0.693,0.399,0.955,0.713c0.216,0.258,0.387,0.544,0.513,0.858
		c0.126,0.313,0.188,0.671,0.188,1.072c0,0.485-0.121,0.961-0.366,1.43c-0.245,0.468-0.648,0.799-1.211,0.992
		c0.47,0.189,0.804,0.459,1,0.807c0.196,0.349,0.294,0.881,0.294,1.596v0.685c0,0.466,0.019,0.782,0.057,0.948
		c0.056,0.264,0.188,0.457,0.393,0.582v0.256h-2.353c-0.064-0.227-0.11-0.408-0.138-0.547c-0.056-0.286-0.086-0.579-0.09-0.879
		l-0.015-0.948c-0.009-0.651-0.121-1.085-0.337-1.302c-0.217-0.217-0.621-0.324-1.215-0.324h-2.082v4h-2.082v-10.201h4.879
		C171.598,179.201,172.135,179.289,172.51,179.45z"/>
	<path fill="#FFA52F" d="M178.153,189.388h-2.117v-10.201h2.117V189.388z"/>
	<path fill="#FFA52F" d="M186.116,179.187h2.215l-3.479,10.201h-2.014l-3.449-10.201h2.276l2.214,7.744L186.116,179.187z"/>
	<path fill="#FFA52F" d="M197.143,180.993h-5.397v2.167h4.955v1.771h-4.955v2.623h5.647v1.834h-7.73v-10.201h7.48V180.993z"/>
</g>
<path fill="#FFA52F" d="M180.549,237.537c0,2.127-1.725,3.852-3.853,3.852l0,0c-2.127,0-3.852-1.725-3.852-3.852v-40.631
	c0-2.127,1.725-3.852,3.852-3.852l0,0c2.128,0,3.853,1.725,3.853,3.852V237.537z"/>
<g>
	<g>
		<defs>
			<circle id="SVGID_1_" cx="24.902" cy="94.645" r="19.29"/>
		</defs>
		<clipPath id="SVGID_2_">
			<use xlink:href="#SVGID_1_"  overflow="visible"/>
		</clipPath>
		<g id="No83OF_1_" clip-path="url(#SVGID_2_)">
			
				<image overflow="visible" enable-background="new    " width="600" height="600" id="No83OF_3_" xlink:href="../../LineConverter2/21623EF0BFC9A847.jpg"  transform="matrix(0.1311 0.0549 -0.0549 0.1311 1.4521 39.9404)">
			</image>
		</g>
	</g>
</g>
<g>
	<g>
		<defs>
			<circle id="SVGID_3_" cx="24.902" cy="151.968" r="19.29"/>
		</defs>
		<clipPath id="SVGID_4_">
			<use xlink:href="#SVGID_3_"  overflow="visible"/>
		</clipPath>
		<g id="No83OF_2_" clip-path="url(#SVGID_4_)">
			
				<image overflow="visible" enable-background="new    " width="600" height="600" id="No83OF_4_" xlink:href="../../LineConverter2/21623EF0BFC9A847.jpg"  transform="matrix(0.1311 0.0549 -0.0549 0.1311 1.4521 97.2637)">
			</image>
		</g>
	</g>
</g>
<g>
	<g>
		<defs>
			<circle id="SVGID_5_" cx="75.5" cy="151.968" r="19.29"/>
		</defs>
		<clipPath id="SVGID_6_">
			<use xlink:href="#SVGID_5_"  overflow="visible"/>
		</clipPath>
		<g id="No83OF_5_" clip-path="url(#SVGID_6_)">
			
				<image overflow="visible" enable-background="new    " width="600" height="600" id="No83OF_6_" xlink:href="../../LineConverter2/21623EF0BFC9A847.jpg"  transform="matrix(0.1311 0.0549 -0.0549 0.1311 52.0508 97.2637)">
			</image>
		</g>
	</g>
</g>
<g>
	<g>
		<defs>
			<circle id="SVGID_7_" cx="75.5" cy="93.719" r="19.29"/>
		</defs>
		<clipPath id="SVGID_8_">
			<use xlink:href="#SVGID_7_"  overflow="visible"/>
		</clipPath>
		<g id="No83OF_7_" clip-path="url(#SVGID_8_)">
			
				<image overflow="visible" enable-background="new    " width="600" height="600" id="No83OF_8_" xlink:href="../../LineConverter2/21623EF0BFC9A847.jpg"  transform="matrix(0.1311 0.0549 -0.0549 0.1311 52.0508 39.0146)">
			</image>
		</g>
	</g>
</g>
<g>
	<g>
		<defs>
			<circle id="SVGID_9_" cx="126.098" cy="93.719" r="19.29"/>
		</defs>
		<clipPath id="SVGID_10_">
			<use xlink:href="#SVGID_9_"  overflow="visible"/>
		</clipPath>
		<g id="No83OF_9_" clip-path="url(#SVGID_10_)">
			
				<image overflow="visible" enable-background="new    " width="600" height="600" id="No83OF_10_" xlink:href="../../LineConverter2/21623EF0BFC9A847.jpg"  transform="matrix(0.1311 0.0549 -0.0549 0.1311 102.6489 39.0146)">
			</image>
		</g>
	</g>
</g>
<g>
	<g>
		<defs>
			<circle id="SVGID_11_" cx="126.098" cy="151.969" r="19.29"/>
		</defs>
		<clipPath id="SVGID_12_">
			<use xlink:href="#SVGID_11_"  overflow="visible"/>
		</clipPath>
		<g id="No83OF_11_" clip-path="url(#SVGID_12_)">
			
				<image overflow="visible" enable-background="new    " width="600" height="600" id="No83OF_12_" xlink:href="../../LineConverter2/21623EF0BFC9A847.jpg"  transform="matrix(0.1311 0.0549 -0.0549 0.1311 102.6489 97.2637)">
			</image>
		</g>
	</g>
</g>
<g>
	<g>
		<defs>
			<circle id="SVGID_13_" cx="177.094" cy="151.969" r="19.29"/>
		</defs>
		<clipPath id="SVGID_14_">
			<use xlink:href="#SVGID_13_"  overflow="visible"/>
		</clipPath>
		<g id="No83OF_13_" clip-path="url(#SVGID_14_)">
			
				<image overflow="visible" enable-background="new    " width="600" height="600" id="No83OF_14_" xlink:href="../../LineConverter2/21623EF0BFC9A847.jpg"  transform="matrix(0.1311 0.0549 -0.0549 0.1311 153.645 97.2637)">
			</image>
		</g>
	</g>
</g>
</svg>
