<?xml version="1.0" encoding="utf-8"?>
<!-- Generator: Adobe Illustrator 16.0.0, SVG Export Plug-In . SVG Version: 6.00 Build 0)  -->
<!DOCTYPE svg PUBLIC "-//W3C//DTD SVG 1.1//EN" "http://www.w3.org/Graphics/SVG/1.1/DTD/svg11.dtd">
<svg version="1.1" id="Layer_1" xmlns="http://www.w3.org/2000/svg" xmlns:xlink="http://www.w3.org/1999/xlink" x="0px" y="0px"
	 width="334.5px" height="399.5px" viewBox="0 0 334.5 399.5" enable-background="new 0 0 334.5 399.5" xml:space="preserve">
<rect x="72.307" y="100.609" fill="none" stroke="#22205F" stroke-width="0.2835" stroke-miterlimit="10" width="198.425" height="255.118"/>
<circle fill="none" stroke="#22205F" stroke-width="0.2835" stroke-miterlimit="10" cx="95.622" cy="116.711" r="10.205"/>
<circle fill="none" stroke="#22205F" stroke-width="0.2835" stroke-miterlimit="10" cx="146.22" cy="116.711" r="10.205"/>
<circle fill="none" stroke="#22205F" stroke-width="0.2835" stroke-miterlimit="10" cx="196.818" cy="116.711" r="10.205"/>
<circle fill="none" stroke="#22205F" stroke-width="0.2835" stroke-miterlimit="10" cx="95.622" cy="173.914" r="10.205"/>
<circle fill="none" stroke="#22205F" stroke-width="0.2835" stroke-miterlimit="10" cx="146.22" cy="173.914" r="10.205"/>
<circle fill="none" stroke="#22205F" stroke-width="0.2835" stroke-miterlimit="10" cx="196.818" cy="173.914" r="10.205"/>
<circle fill="none" stroke="#22205F" stroke-width="0.2835" stroke-miterlimit="10" cx="247.418" cy="173.914" r="10.205"/>
<circle fill="none" stroke="#22205F" stroke-width="0.2835" stroke-miterlimit="10" cx="95.622" cy="316.822" r="8.646"/>
<circle fill="none" stroke="#22205F" stroke-width="0.2835" stroke-miterlimit="10" cx="95.622" cy="280.396" r="8.646"/>
<circle fill="none" stroke="#22205F" stroke-width="0.2835" stroke-miterlimit="10" cx="95.622" cy="243.973" r="8.646"/>
<circle fill="none" stroke="#22205F" stroke-width="0.2835" stroke-miterlimit="10" cx="146.22" cy="316.822" r="8.646"/>
<circle fill="none" stroke="#22205F" stroke-width="0.2835" stroke-miterlimit="10" cx="146.22" cy="280.396" r="8.646"/>
<circle fill="none" stroke="#22205F" stroke-width="0.2835" stroke-miterlimit="10" cx="146.22" cy="243.973" r="8.646"/>
<circle fill="none" stroke="#22205F" stroke-width="0.2835" stroke-miterlimit="10" cx="196.818" cy="316.822" r="8.646"/>
<circle fill="none" stroke="#22205F" stroke-width="0.2835" stroke-miterlimit="10" cx="196.818" cy="280.396" r="8.646"/>
<circle fill="none" stroke="#22205F" stroke-width="0.2835" stroke-miterlimit="10" cx="196.818" cy="243.973" r="8.646"/>
<circle fill="none" stroke="#22205F" stroke-width="0.2835" stroke-miterlimit="10" cx="247.417" cy="316.822" r="8.646"/>
<circle fill="none" stroke="#22205F" stroke-width="0.2835" stroke-miterlimit="10" cx="247.417" cy="280.396" r="8.646"/>
<circle fill="none" stroke="#22205F" stroke-width="0.2835" stroke-miterlimit="10" cx="95.622" cy="206.314" r="7.087"/>
<circle fill="none" stroke="#22205F" stroke-width="0.2835" stroke-miterlimit="10" cx="146.22" cy="206.314" r="7.087"/>
<circle fill="none" stroke="#22205F" stroke-width="0.2835" stroke-miterlimit="10" cx="196.818" cy="206.314" r="7.086"/>
<rect x="70.72" y="21.946" fill="none" stroke="#22205F" stroke-width="0.2835" stroke-miterlimit="10" width="201.6" height="364.252"/>
<path fill="none" stroke="#22205F" stroke-width="0.2835" stroke-miterlimit="10" d="M94.354,25.914h-4.536
	c-2.505,0-4.534,2.029-4.534,4.534c0,2.507,2.029,4.535,4.534,4.535h4.536c2.504,0,4.535-2.028,4.535-4.535
	C98.891,27.945,96.858,25.914,94.354,25.914z"/>
<path fill="none" stroke="#22205F" stroke-width="0.2835" stroke-miterlimit="10" d="M173.787,25.914h-4.536
	c-2.505,0-4.534,2.029-4.534,4.534c0,2.507,2.029,4.535,4.534,4.535h4.536c2.504,0,4.535-2.028,4.535-4.535
	C178.323,27.945,176.291,25.914,173.787,25.914z"/>
<path fill="none" stroke="#22205F" stroke-width="0.2835" stroke-miterlimit="10" d="M248.685,382.23h4.536
	c2.505,0,4.534-2.029,4.534-4.534c0-2.507-2.029-4.535-4.534-4.535h-4.536c-2.504,0-4.535,2.028-4.535,4.535
	C244.148,380.199,246.181,382.23,248.685,382.23z"/>
<path fill="none" stroke="#22205F" stroke-width="0.2835" stroke-miterlimit="10" d="M89.819,382.23h4.536
	c2.505,0,4.534-2.029,4.534-4.534c0-2.507-2.029-4.535-4.534-4.535h-4.536c-2.504,0-4.535,2.028-4.535,4.535
	C85.283,380.199,87.315,382.23,89.819,382.23z"/>
<path fill="none" stroke="#22205F" stroke-width="0.2835" stroke-miterlimit="10" d="M169.252,382.23h4.536
	c2.505,0,4.534-2.029,4.534-4.534c0-2.507-2.029-4.535-4.534-4.535h-4.536c-2.504,0-4.535,2.028-4.535,4.535
	C164.716,380.199,166.748,382.23,169.252,382.23z"/>
<path fill="none" stroke="#22205F" stroke-width="0.2835" stroke-miterlimit="10" d="M248.685,34.983h4.536
	c2.505,0,4.534-2.029,4.534-4.534c0-2.507-2.029-4.535-4.534-4.535h-4.536c-2.504,0-4.535,2.028-4.535,4.535
	C244.148,32.952,246.181,34.983,248.685,34.983z"/>
<rect x="70.72" y="21.946" fill="none" stroke="#22205F" stroke-width="0.2835" stroke-miterlimit="10" width="201.6" height="21.969"/>
<rect x="70.72" y="364.229" fill="none" stroke="#22205F" stroke-width="0.2835" stroke-miterlimit="10" width="201.6" height="21.969"/>
<circle fill="none" stroke="#22205F" stroke-width="0.2835" stroke-miterlimit="10" cx="95.621" cy="72.262" r="8.646"/>
</svg>
